<?xml version="1.0" encoding="UTF-8" standalone="no"?>
<svg width="100px" height="30px" viewBox="0 0 100 30" version="1.1" xmlns="http://www.w3.org/2000/svg" xmlns:xlink="http://www.w3.org/1999/xlink">
    <!-- Generator: Sketch 3.6.1 (26313) - http://www.bohemiancoding.com/sketch -->
    <title>logo</title>
    <desc>Created with Sketch.</desc>
    <defs>
        <path id="path-1" d="M0,0.078024088 L99.9576923,0.078024088 L99.9576923,29.4117647 L0,29.4117647"></path>
        <path id="path-3" d="M0,0.078024088 L99.9576923,0.078024088 L99.9576923,29.4117647 L0,29.4117647"></path>
    </defs>
    <g id="Cidade" stroke="none" stroke-width="1" fill="none" fill-rule="evenodd">
        <g id="dektop" transform="translate(-151.000000, -15.000000)">
            <g id="Group" transform="translate(-5.000000, -5.000000)">
                <g id="logo" transform="translate(156.000000, 20.000000)">
                    <path d="M75.1517745,13.8794118 C75.9200437,11.574472 78.0993269,9.90699075 80.6626136,9.90690347 C83.2242395,9.90690347 85.4038724,11.554835 86.1729283,13.8674551 L75.349764,13.8674551 C75.2827185,13.8674551 75.2168094,13.8720806 75.1517745,13.8794118 M80.6626136,6.41589283 C75.5323689,6.4159801 71.3585052,10.5832868 71.3584178,15.7054722 C71.3585052,20.8276575 75.5323689,24.9949642 80.6626136,24.9950515 C83.1535227,24.9950515 85.4938199,24.0249869 87.2523864,22.2635102 C87.9340297,21.5807558 87.9321941,20.4755891 87.2483654,19.7950166 C86.5645367,19.1145313 85.4575437,19.1161896 84.7759878,19.7990312 C83.6782605,20.898525 82.2174213,21.5040408 80.6626136,21.5040408 C78.027736,21.5039536 75.7985402,19.7423896 75.0907605,17.3372578 C75.1754633,17.3499127 75.2614773,17.3584657 75.349764,17.3584657 L88.1994143,17.3584657 C89.1648864,17.3584657 89.9476661,16.577003 89.9476661,15.6129604 C89.9476661,15.5924507 89.9452185,15.5724647 89.9445192,15.5521295 C89.9554458,15.458745 89.9610402,15.3637895 89.9564948,15.2667394 C89.724764,10.3036568 85.6424213,6.41589283 80.6626136,6.41589283" id="Fill-1" fill="#4ACF74"></path>
                    <g id="Group-5">
                        <mask id="mask-2" fill="white">
                            <use xlink:href="#path-1"></use>
                        </mask>
                        <g id="Clip-4"></g>
                        <path d="M98.2094843,6.37084133 C94.2804633,6.37084133 91.0839598,9.55822133 91.0839598,13.4760953 L91.0839598,23.2931663 C91.0839598,24.2572089 91.8666521,25.0386717 92.8322115,25.0386717 C93.797771,25.0386717 94.5804633,24.2572089 94.5804633,23.2931663 L94.5804633,13.4760953 C94.5804633,11.4831646 96.2084353,9.86185198 98.2094843,9.86185198 C99.1750437,9.86185198 99.957736,9.08038925 99.957736,8.11634666 C99.957736,7.15230407 99.1750437,6.37084133 98.2094843,6.37084133" id="Fill-3" fill="#4ACF74" mask="url(#mask-2)"></path>
                    </g>
                    <path d="M68.401792,21.5296387 C66.400743,21.5296387 64.772771,19.9042241 64.772771,17.9063187 L64.772771,12.2092512 L68.3566871,12.2092512 C69.3222465,12.2092512 70.1049388,11.4277884 70.1049388,10.4637459 C70.1049388,9.49970326 69.3222465,8.71824053 68.3566871,8.71824053 L64.772771,8.71824053 L64.772771,3.74355036 C64.772771,2.77950777 63.9900787,1.99804503 63.0245192,1.99804503 C62.0589598,1.99804503 61.2762675,2.77950777 61.2762675,3.74355036 L61.2762675,17.9063187 C61.2762675,21.8292547 64.472771,25.0206493 68.401792,25.0206493 C69.3673514,25.0206493 70.1500437,24.2391866 70.1500437,23.275144 C70.1500437,22.3111014 69.3673514,21.5296387 68.401792,21.5296387" id="Fill-6" fill="#4ACF74"></path>
                    <path d="M54.5455332,13.9547565 L49.7815472,13.9547565 C48.6488549,13.9547565 47.7273514,13.0347006 47.7273514,11.9037877 C47.7273514,10.7728748 48.6488549,9.85281899 49.7815472,9.85281899 L58.3042745,9.85281899 C59.2698339,9.85281899 60.0525262,9.07135626 60.0525262,8.10731367 C60.0525262,7.14327108 59.2698339,6.36180834 58.3042745,6.36180834 L49.6504283,6.36180834 C47.9240297,6.36180834 44.2308479,7.74363763 44.2308479,11.9037877 C44.2308479,16.0639379 47.9021766,17.4457671 49.6504283,17.4457671 L54.5455332,17.4457671 C55.6782255,17.4457671 56.599729,18.365823 56.599729,19.4967359 C56.599729,20.6276488 55.6782255,21.5477047 54.5455332,21.5477047 L45.9790997,21.5477047 C45.0135402,21.5477047 44.2308479,22.3291674 44.2308479,23.29321 C44.2308479,24.2572526 45.0135402,25.0387153 45.9790997,25.0387153 L54.5455332,25.0387153 C57.5758654,25.0387153 60.0962325,22.5367953 60.0962325,19.4967359 C60.0962325,16.4566766 57.6061976,13.9547565 54.5455332,13.9547565" id="Fill-8" fill="#4ACF74"></path>
                    <path d="M21.4161626,6.36180834 C20.4506031,6.36180834 19.6679108,7.14327108 19.6679108,8.10731367 L19.6679108,23.29321 C19.6679108,24.2572526 20.4506031,25.0387153 21.4161626,25.0387153 C22.381722,25.0387153 23.1644143,24.2572526 23.1644143,23.29321 L23.1644143,8.10731367 C23.1644143,7.14327108 22.381722,6.36180834 21.4161626,6.36180834" id="Fill-10" fill="#4ACF74"></path>
                    <g id="Group-14">
                        <mask id="mask-4" fill="white">
                            <use xlink:href="#path-3"></use>
                        </mask>
                        <g id="Clip-13"></g>
                        <path d="M21.4161626,0.0779891779 C20.4506031,0.0779891779 19.6679108,0.859451911 19.6679108,1.8234945 C19.6679108,2.78753709 20.4506031,3.56899983 21.4161626,3.56899983 C22.381722,3.56899983 23.1644143,2.78753709 23.1644143,1.8234945 C23.1644143,0.859451911 22.381722,0.0779891779 21.4161626,0.0779891779" id="Fill-12" fill="#4ACF74" mask="url(#mask-4)"></path>
                    </g>
                    <path d="M16.6958829,25.0387153 L1.74833042,25.0387153 C1.04212413,25.0387153 0.405323427,24.6145575 0.134082168,23.9635713 C-0.137071678,23.3125851 0.0106555944,22.5625415 0.50847028,22.0625415 L12.5799738,9.85281899 L1.83574301,9.85281899 C0.870183566,9.85281899 0.0874912587,9.07135626 0.0874912587,8.10731367 C0.0874912587,7.14327108 0.870183566,6.36180834 1.83574301,6.36180834 L16.7832955,6.36180834 C17.4895017,6.36180834 18.1263024,6.78596614 18.3975437,7.43695235 C18.6686976,8.08793856 18.5209703,8.8379822 18.0231556,9.3379822 L5.9516521,21.5477047 L16.6958829,21.5477047 C17.6614423,21.5477047 18.4441346,22.3291674 18.4441346,23.29321 C18.4441346,24.2572526 17.6614423,25.0387153 16.6958829,25.0387153" id="Fill-15" fill="#4ACF74"></path>
                    <path d="M33.6978059,21.5475301 C30.4634528,21.5475301 27.8414248,18.9296212 27.8414248,15.7002618 C27.8414248,12.4709024 30.4634528,9.85299354 33.6978059,9.85299354 C36.9322465,9.85299354 39.5542745,12.4709024 39.5542745,15.7002618 C39.5542745,18.9296212 36.9322465,21.5475301 33.6978059,21.5475301 M33.7047115,6.36180834 C28.5505157,6.36180834 24.363278,10.5333915 24.363278,15.679403 C24.363278,15.9465526 24.3881906,27.6662245 24.3881906,27.6662245 C24.3881906,28.6302671 25.1708829,29.4117298 26.1364423,29.4117298 C27.1020017,29.4117298 27.8846941,28.6302671 27.8846941,27.6662245 L27.8846941,22.9774481 C29.4581206,24.241543 31.5027885,24.9969977 33.6956206,24.9969977 C38.849729,24.9969977 43.0324213,20.8255018 43.0324213,15.679403 C43.0324213,10.5333915 38.8588199,6.36180834 33.7047115,6.36180834" id="Fill-17" fill="#4ACF74"></path>
                </g>
            </g>
        </g>
    </g>
</svg>