<?xml version="1.0" encoding="UTF-8" standalone="no"?>
<svg width="49px" height="31px" viewBox="0 0 49 31" version="1.1" xmlns="http://www.w3.org/2000/svg" xmlns:xlink="http://www.w3.org/1999/xlink">
    <!-- Generator: Sketch 3.6.1 (26313) - http://www.bohemiancoding.com/sketch -->
    <title>alelo</title>
    <desc>Created with Sketch.</desc>
    <defs></defs>
    <g id="Checkout" stroke="none" stroke-width="1" fill="none" fill-rule="evenodd">
        <g id="pagamento" transform="translate(-563.000000, -706.000000)">
            <g transform="translate(442.000000, 230.000000)" id="alelo">
                <g transform="translate(121.000000, 476.000000)">
                    <g id="card" stroke="#DDDDDD" fill="#FFFFFF">
                        <rect x="0.0250118828" y="0.189319616" width="48" height="29.8956027" rx="3"></rect>
                    </g>
                    <g id="Group" transform="translate(8.000000, 4.000000)">
                        <path d="M22.8132056,0.150723404 C20.5261495,0.150723404 18.401785,0.831943262 16.6371215,1.99716312 C16.5112897,2.0806383 15.6438131,2.68992908 15.6056822,2.71832624 C14.164972,3.78306383 13.1977196,3.97170213 11.8720374,3.64092199 C11.7921215,3.62141844 11.4120841,3.49238298 11.291972,3.44822695 C10.3863645,3.1124539 9.40497196,2.92787234 8.37957009,2.92787234 C3.81848598,2.92787234 0.122018692,6.55958865 0.122018692,11.0377589 C0.122018692,15.5182695 3.81848598,19.1487376 8.37957009,19.1487376 C9.29296262,19.1487376 10.1710841,19.0012908 10.9918505,18.7321418 C12.9687757,18.1514043 14.0415234,18.3102411 15.2756916,19.1701135 C15.5237009,19.3426809 16.1215607,19.7182411 16.2443738,19.8070213 C18.082757,21.1377872 20.3536075,21.9261986 22.8132056,21.9261986 C28.9365421,21.9261986 33.899271,17.0521844 33.899271,11.0377589 C33.899271,5.02551773 28.9365421,0.150723404 22.8132056,0.150723404" id="Fill-20" fill="#007659"></path>
                        <path d="M18.8142336,12.7202128 C18.4518318,13.0689362 17.9550187,13.2819149 17.4078411,13.2733333 C17.032729,13.2681844 16.684785,13.1578723 16.3891121,12.9739149 L15.6542991,14.1196312 C16.1573084,14.4307518 16.7500841,14.6159574 17.3868692,14.6253191 C18.3158318,14.6395177 19.1617009,14.2808085 19.7783084,13.689305 L18.8142336,12.7202128" id="Fill-21" fill="#FFFFFF"></path>
                        <path d="M15.4790561,11.5421986 C15.4707944,11.4649645 15.4652336,11.3872624 15.4668224,11.3070638 C15.4833458,10.2381135 16.3797383,9.38417021 17.4686916,9.40086525 C18.061785,9.40991489 18.5879907,9.67578723 18.943243,10.0881702 L15.4790561,11.5421986 L15.4790561,11.5421986 Z M17.4895047,8.04903546 C15.6407944,8.02188652 14.1188972,9.47107801 14.0904579,11.2869362 C14.0798131,11.9669078 14.2804766,12.6022553 14.6320748,13.1321277 L20.6990093,10.5866809 C20.356785,9.15153191 19.0584299,8.07337589 17.4895047,8.04903546 L17.4895047,8.04903546 Z" id="Fill-22" fill="#FFFFFF"></path>
                        <path d="M22.6003084,6.56770213 L22.6003084,12.9174326 L23.7211963,13.3738156 L23.1924486,14.6253191 L22.0823645,14.1726809 C21.8310187,14.0678298 21.6635607,13.9046241 21.5362991,13.7212908 C21.412215,13.535461 21.3205421,13.2787943 21.3205421,12.9342837 L21.3205421,6.56770213 L22.6003084,6.56770213" id="Fill-23" fill="#FFFFFF"></path>
                        <path d="M12.8378598,6.56770213 L12.8378598,12.9174326 L13.9589065,13.3738156 L13.43,14.6253191 L12.3202336,14.1726809 C12.0692056,14.0678298 11.9011121,13.9046241 11.7736916,13.7212908 C11.6499252,13.535461 11.5584112,13.2787943 11.5584112,12.9342837 L11.5584112,6.56770213 L12.8378598,6.56770213" id="Fill-24" fill="#FFFFFF"></path>
                        <path d="M28.1200654,9.59137589 C29.1025701,10.0549362 29.5154953,11.2117305 29.0436262,12.1762979 L30.2841495,12.7614043 C31.0856916,11.1245106 30.3840841,9.1602695 28.7164953,8.37310638 C27.4500748,7.77520567 25.9907757,8.03015603 25.0120841,8.90563121 L25.9396168,9.90639716 C26.5158692,9.39025532 27.3750841,9.23875177 28.1200654,9.59137589" id="Fill-25" fill="#BBD236"></path>
                        <path d="M26.4118037,13.0825106 C25.4312056,12.6189504 25.0176449,11.461844 25.4887196,10.4986809 L25.4887196,10.4980567 L24.2480374,9.91232624 C23.4474486,11.5496879 24.1484206,13.5143972 25.8153738,14.3012482 C27.0830654,14.8991489 28.5418879,14.6434184 29.521215,13.7679433 L28.5936822,12.7684255 C28.0167944,13.2833191 27.158215,13.4345106 26.4118037,13.0825106" id="Fill-26" fill="#FFFFFF"></path>
                        <path d="M10.2956449,13.1739433 L10.2956449,11.3448227 L10.2956449,11.3360851 C10.2956449,9.86926241 9.31695327,8.62899291 7.96600935,8.20787234 C7.64666355,8.10848227 7.30698131,8.05340426 6.95363551,8.0530922 C6.60743925,8.05340426 6.27363551,8.10551773 5.95953271,8.20085106 C5.43666355,8.36078014 4.96828972,8.64365957 4.59047664,9.01485106 C3.98530841,9.60885106 3.61162617,10.4297163 3.61083178,11.3360851 C3.61162617,13.1489787 5.10778505,14.6178298 6.95363551,14.6184539 L6.9552243,14.6184539 C7.48905607,14.6184539 7.99619626,14.4936312 8.44550467,14.2731631 L7.90420561,13.034922 C7.6218785,13.1873617 7.30062617,13.2752057 6.95363551,13.2752057 C5.86341121,13.2733333 4.98084112,12.4062837 4.97814019,11.3360851 L4.9787757,11.3360851 C4.97957009,11.0068652 5.06393458,10.697617 5.21073832,10.4264397 C5.47574766,9.93885106 5.94634579,9.57670922 6.50845794,9.4484539 C6.65192523,9.41553191 6.80015888,9.39634043 6.95331776,9.39634043 C7.24549533,9.39696454 7.52162617,9.46093617 7.77058879,9.57249645 C8.45233645,9.87878014 8.92706542,10.5517305 8.92833645,11.3360851 L8.92928972,11.3360851 C8.92928972,11.3914752 8.92928972,13.1586525 8.92976636,13.1586525 C8.92976636,13.5028511 9.02143925,13.7599858 9.14457009,13.9455035 C9.27183178,14.1285248 9.43992523,14.2920426 9.69111215,14.3972057 L10.3175701,14.641234 L10.8471121,13.3898865 L10.2956449,13.1739433" id="Fill-27" fill="#FFFFFF"></path>
                    </g>
                </g>
            </g>
        </g>
    </g>
</svg>