<?xml version="1.0" encoding="UTF-8" standalone="no"?>
<svg width="49px" height="30px" viewBox="0 0 49 30" version="1.1" xmlns="http://www.w3.org/2000/svg" xmlns:xlink="http://www.w3.org/1999/xlink">
    <!-- Generator: Sketch 3.6.1 (26313) - http://www.bohemiancoding.com/sketch -->
    <title>amex</title>
    <desc>Created with Sketch.</desc>
    <defs></defs>
    <g id="Checkout" stroke="none" stroke-width="1" fill="none" fill-rule="evenodd">
        <g id="pagamento" transform="translate(-804.000000, -377.000000)">
            <g transform="translate(442.000000, 230.000000)" id="amex">
                <g transform="translate(362.000000, 147.000000)">
                    <g id="card" transform="translate(0.000000, 0.000000)" fill="#2E77BC">
                        <rect x="0.0195405334" y="0.14538886" width="48" height="29.3868339" rx="3"></rect>
                    </g>
                    <g id="logo" transform="translate(4.000000, 8.000000)" fill="#FFFFFF">
                        <path d="M3.94802376,3.78194834 L3.17617895,1.89320666 L2.40846166,3.78194834 L3.94802376,3.78194834 Z M20.9549403,3.02979584 C20.7999451,3.12426151 20.6166266,3.1274056 20.3970145,3.1274056 L19.0268227,3.1274056 L19.0268227,2.07499233 L20.4156594,2.07499233 C20.6120721,2.07499233 20.8173091,2.08399587 20.9505281,2.16045446 C21.0968413,2.22962448 21.1873619,2.3763964 21.1873619,2.57933324 C21.1873619,2.78641455 21.1011111,2.95319433 20.9549403,3.02979584 L20.9549403,3.02979584 Z M30.7296012,3.78194834 L29.9490743,1.89320666 L29.1729597,3.78194834 L30.7296012,3.78194834 L30.7296012,3.78194834 Z M12.5089114,5.82646548 L11.3526386,5.82646548 L11.3483688,2.1155797 L9.71273524,5.82646548 L8.72241693,5.82646548 L7.08279823,2.11229269 L7.08279823,5.82646548 L4.78875533,5.82646548 L4.35536653,4.7696219 L2.00695433,4.7696219 L1.56915337,5.82646548 L0.343993839,5.82646548 L2.36391299,1.08831917 L4.03954068,1.08831917 L5.95797995,5.57436648 L5.95797995,1.08831917 L7.79870813,1.08831917 L9.27479195,4.30258136 L10.6308932,1.08831917 L12.508769,1.08831917 L12.508769,5.82646548 L12.5089114,5.82646548 L12.5089114,5.82646548 Z M17.1173501,5.82646548 L13.3493583,5.82646548 L13.3493583,1.08831917 L17.1173501,1.08831917 L17.1173501,2.07499233 L14.4774501,2.07499233 L14.4774501,2.92904199 L17.0540141,2.92904199 L17.0540141,3.90028052 L14.4774501,3.90028052 L14.4774501,4.84650923 L17.1173501,4.84650923 L17.1173501,5.82646548 L17.1173501,5.82646548 Z M22.4297431,2.36439169 C22.4297431,3.11997411 21.9277522,3.51012732 21.6349835,3.62731619 C21.8817803,3.72163894 22.0927104,3.88827581 22.1930516,4.02633002 C22.3521744,4.26199399 22.3796437,4.47250523 22.3796437,4.8956714 L22.3796437,5.82646548 L21.2420159,5.82646548 L21.237746,5.22894513 C21.237746,4.94383317 21.2649307,4.53381502 21.0596937,4.30586836 C20.8950202,4.1392315 20.6436689,4.10307444 20.2377494,4.10307444 L19.026965,4.10307444 L19.026965,5.82646548 L17.8990155,5.82646548 L17.8990155,1.08831917 L20.4933705,1.08831917 C21.0696566,1.08831917 21.4945058,1.1037538 21.8590078,1.31526543 C22.2158241,1.52706288 22.4297431,1.83589844 22.4297431,2.36439169 L22.4297431,2.36439169 Z M23.084025,1.08831917 L24.2348893,1.08831917 L24.2348893,5.82646548 L23.084025,5.82646548 L23.084025,1.08831917 Z M37.5862531,5.82646548 L35.9880519,5.82646548 L33.8500005,2.27021185 L33.8500005,5.82646548 L31.553111,5.82646548 L31.1141714,4.7696219 L28.7711677,4.7696219 L28.3453223,5.82646548 L27.0253723,5.82646548 C26.4772671,5.82646548 25.7831334,5.70470338 25.3900235,5.30240254 C24.9936399,4.90010171 24.7872643,4.35531635 24.7872643,3.49354938 C24.7872643,2.79084486 24.9106627,2.14844975 25.3954319,1.64082184 C25.759934,1.26267335 26.3309539,1.08831917 27.1082072,1.08831917 L28.2002901,1.08831917 L28.2002901,2.10357498 L27.131122,2.10357498 C26.7196517,2.10357498 26.4872301,2.16502769 26.2633481,2.38439955 C26.0709207,2.58376355 25.9389826,2.96091165 25.9389826,3.45753523 C25.9389826,3.96516314 26.0394662,4.33130692 26.2492577,4.5702579 C26.4228978,4.7577601 26.7382967,4.81463958 27.0351929,4.81463958 L27.5417383,4.81463958 L29.1315422,1.08846208 L30.8215451,1.08846208 L32.73116,5.57007908 L32.73116,1.08846208 L34.4483475,1.08846208 L36.4309767,4.38847223 L36.4309767,1.08846208 L37.5862531,1.08846208 L37.5862531,5.82646548 L37.5862531,5.82646548 Z M0.330899662,6.75725956 L2.25802095,6.75725956 L2.69254837,5.70470338 L3.66536033,5.70470338 L4.09874913,6.75725956 L7.89065203,6.75725956 L7.89065203,5.95251497 L8.22910804,6.76054656 L10.1975044,6.76054656 L10.5359605,5.94051026 L10.5359605,6.75725956 L19.9592135,6.75725956 L19.954659,5.02958112 L20.1371235,5.02958112 C20.2646494,5.03401143 20.3020817,5.04587324 20.3020817,5.25767069 L20.3020817,6.75725956 L25.1758198,6.75725956 L25.1758198,6.35495872 C25.5689298,6.56647035 26.1803709,6.75725956 26.9849512,6.75725956 L29.0351862,6.75725956 L29.4739834,5.70470338 L30.4467954,5.70470338 L30.8760567,6.75725956 L34.8270823,6.75725956 L34.8270823,5.75743837 L35.4255716,6.75725956 L38.5918005,6.75725956 L38.5918005,0.148807378 L35.4581647,0.148807378 L35.4581647,0.929256706 L35.0193674,0.148807378 L31.8040353,0.148807378 L31.8040353,0.929256706 L31.4011047,0.148807378 L27.0581078,0.148807378 C26.3309539,0.148807378 25.6920435,0.250704535 25.1758198,0.534673188 L25.1758198,0.148807378 L22.1785342,0.148807378 L22.1785342,0.534673188 C21.8501835,0.241986826 21.4024195,0.148807378 20.9046985,0.148807378 L9.95511984,0.148807378 L9.22028032,1.85562047 L8.46594185,0.148807378 L5.01690713,0.148807378 L5.01690713,0.929256706 L4.63802997,0.148807378 L1.69667927,0.148807378 L0.330757334,3.29075546 L0.330757334,6.75725956 L0.330899662,6.75725956 L0.330899662,6.75725956 Z" id="Fill-7"></path>
                        <path d="M40.1347688,10.1307642 L38.078983,10.1307642 C37.8738883,10.1307642 37.7375381,10.1383386 37.6225371,10.2162263 C37.5035509,10.2931136 37.4577212,10.4068726 37.4577212,10.5572173 C37.4577212,10.7361448 37.5582048,10.857621 37.7043757,10.910356 C37.8233619,10.9519438 37.9513148,10.9639485 38.1390454,10.9639485 L38.7503442,10.9803835 C39.3671939,10.9956752 39.7790911,11.1021456 40.0300154,11.3619619 C40.075845,11.3979761 40.103172,11.4387063 40.1347688,11.4791508 L40.1347688,10.1307642 Z M40.1347688,13.2552768 C39.8607874,13.6575777 39.326915,13.861372 38.6041734,13.861372 L36.4258432,13.861372 L36.4258432,12.8452587 L38.5952067,12.8452587 C38.8104067,12.8452587 38.961132,12.8168189 39.0516526,12.727784 C39.1302177,12.6546124 39.1851563,12.5479991 39.1851563,12.4186626 C39.1851563,12.2806084 39.1302177,12.1711368 39.0472405,12.1052538 C38.9655442,12.0329397 38.8464157,12.0000696 38.6498607,12.0000696 C37.5909403,11.9640555 36.2697093,12.0329397 36.2697093,10.5332079 C36.2697093,9.84579512 36.7042367,9.12222528 37.8879788,9.12222528 L40.1346265,9.12222528 L40.1346265,8.17928357 L38.0472439,8.17928357 C37.4173001,8.17928357 36.9595732,8.33091454 36.6356346,8.56629268 L36.6356346,8.17928357 L33.5479707,8.17928357 C33.0543772,8.17928357 32.4746752,8.30218897 32.2006938,8.56629268 L32.2006938,8.17928357 L26.6870489,8.17928357 L26.6870489,8.56629268 C26.2482517,8.2485965 25.5078613,8.17928357 25.1662741,8.17928357 L21.5295087,8.17928357 L21.5295087,8.56629268 C21.1823707,8.22873156 20.4103836,8.17928357 19.9397048,8.17928357 L15.8695507,8.17928357 L14.9381562,9.19139529 L14.0659701,8.17928357 L7.98600209,8.17928357 L7.98600209,14.7921661 L13.9515384,14.7921661 L14.9111138,13.764191 L15.8153237,14.7921661 L19.4923679,14.7954531 L19.4923679,13.2399851 L19.8540234,13.2399851 C20.3417815,13.2474166 20.9172136,13.2276946 21.42504,13.0074652 L21.42504,14.7921661 L24.4579076,14.7921661 L24.4579076,13.0684892 L24.6043631,13.0684892 C24.7909551,13.0684892 24.8094578,13.0763494 24.8094578,13.2637087 L24.8094578,14.7918802 L34.0230617,14.7918802 C34.6081721,14.7918802 35.2196132,14.6415355 35.5580693,14.3687141 L35.5580693,14.7918802 L38.480775,14.7918802 C39.0888003,14.7918802 39.6828774,14.7062752 40.1347688,14.4870462 L40.1347688,13.2552768 L40.1347688,13.2552768 Z M35.6354957,11.3619619 C35.8551078,11.5900515 35.9729554,11.8781646 35.9729554,12.3659276 C35.9729554,13.3854708 35.3385995,13.861372 34.2009717,13.861372 L32.0042811,13.861372 L32.0042811,12.8452587 L34.1922897,12.8452587 C34.4062087,12.8452587 34.557788,12.8168189 34.6528631,12.727784 C34.7304319,12.6546124 34.7862245,12.5479991 34.7862245,12.4186626 C34.7862245,12.2806084 34.7260197,12.1709939 34.6485933,12.1052538 C34.5622002,12.0329397 34.4432139,12.0000696 34.2469436,12.0000696 C33.1920084,11.9640555 31.8710621,12.0329397 31.8710621,10.5332079 C31.8710621,9.84579512 32.3013197,9.12222528 33.4836385,9.12222528 L35.7449459,9.12222528 L35.7449459,10.13105 L33.6759236,10.13105 C33.4706866,10.13105 33.3374676,10.1386244 33.2238899,10.2165121 C33.1004915,10.2932565 33.0546619,10.4071584 33.0546619,10.5575032 C33.0546619,10.7364306 33.1595576,10.8579069 33.3014586,10.9106418 C33.4204448,10.9522296 33.5481131,10.9642343 33.7403982,10.9642343 L34.3475695,10.9806693 C34.9597223,10.9956752 35.3800169,11.1021456 35.6354957,11.3619619 L35.6354957,11.3619619 Z M25.4580465,11.0691327 C25.3070365,11.1590251 25.1205868,11.1668853 24.9009747,11.1668853 L23.5309253,11.1668853 L23.5309253,10.1024673 L24.9196197,10.1024673 C25.1205868,10.1024673 25.321554,10.1067547 25.4580465,10.1879295 C25.6042174,10.2646739 25.6914645,10.4115887 25.6914645,10.6142397 C25.6914645,10.8171766 25.6042174,10.9803835 25.4580465,11.0691327 L25.4580465,11.0691327 Z M26.1392284,11.6589357 C26.3901527,11.7521151 26.595532,11.918752 26.6916034,12.0568062 C26.8510108,12.2881828 26.8740679,12.5041247 26.8784801,12.9220031 L26.8784801,13.861372 L25.7462608,13.861372 L25.7462608,13.2684249 C25.7462608,12.9834558 25.7734454,12.5611471 25.5639386,12.3409178 C25.3991227,12.1709939 25.1479138,12.1304065 24.7363012,12.1304065 L23.5310676,12.1304065 L23.5310676,13.861372 L22.3977096,13.861372 L22.3977096,9.12208236 L25.0017429,9.12208236 C25.5726206,9.12208236 25.988503,9.14737801 26.3588405,9.34588453 C26.7148029,9.56168356 26.9386848,9.85751401 26.9386848,10.3981549 C26.9385425,11.1545948 26.4361246,11.5406035 26.1392284,11.6589357 L26.1392284,11.6589357 Z M27.5640741,9.12208236 L31.3285077,9.12208236 L31.3285077,10.1023244 L28.6871845,10.1023244 L28.6871845,10.9639485 L31.2638908,10.9639485 L31.2638908,11.9307567 L28.6871845,11.9307567 L28.6871845,12.8736984 L31.3285077,12.8779858 L31.3285077,13.861372 L27.5640741,13.861372 L27.5640741,9.12208236 L27.5640741,9.12208236 Z M19.9542223,11.3092269 L18.4964988,11.3092269 L18.4964988,10.1024673 L19.9673165,10.1024673 C20.3745169,10.1024673 20.657038,10.2691042 20.657038,10.6834098 C20.657038,11.0934279 20.3876111,11.3092269 19.9542223,11.3092269 L19.9542223,11.3092269 Z M17.3732461,13.4303456 L15.6415412,11.4998732 L17.3732461,9.63085358 L17.3732461,13.4303456 L17.3732461,13.4303456 Z M12.9011577,12.8736984 L10.1280387,12.8736984 L10.1280387,11.9307567 L12.6041191,11.9307567 L12.6041191,10.9639485 L10.1280387,10.9639485 L10.1280387,10.1023244 L12.9558116,10.1023244 L14.1895108,11.4834382 L12.9011577,12.8736984 L12.9011577,12.8736984 Z M21.8681071,10.6834098 C21.8681071,12.0000696 20.8898867,12.2717478 19.9038382,12.2717478 L18.4964988,12.2717478 L18.4964988,13.861372 L16.3042204,13.861372 L14.9153837,12.2926131 L13.4721776,13.861372 L9.00435902,13.861372 L9.00435902,9.12208236 L13.5407797,9.12208236 L14.9284779,10.6755495 L16.3631442,9.12208236 L19.9673165,9.12208236 C20.8624174,9.12208236 21.8681071,9.37089435 21.8681071,10.6834098 L21.8681071,10.6834098 Z" id="Fill-6"></path>
                    </g>
                </g>
            </g>
        </g>
    </g>
</svg>