<?xml version="1.0" encoding="UTF-8" standalone="no"?>
<svg width="49px" height="30px" viewBox="0 0 49 30" version="1.1" xmlns="http://www.w3.org/2000/svg" xmlns:xlink="http://www.w3.org/1999/xlink">
    <!-- Generator: Sketch 3.6.1 (26313) - http://www.bohemiancoding.com/sketch -->
    <title>diners</title>
    <desc>Created with Sketch.</desc>
    <defs></defs>
    <g id="Checkout" stroke="none" stroke-width="1" fill="none" fill-rule="evenodd">
        <g id="pagamento" transform="translate(-719.000000, -377.000000)">
            <g transform="translate(442.000000, 230.000000)" id="diners">
                <g transform="translate(277.000000, 147.000000)">
                    <g id="card" fill="#184977">
                        <rect x="0.0195405334" y="0.146722702" width="48" height="29.6564378" rx="3"></rect>
                    </g>
                    <g id="logo" transform="translate(14.000000, 5.000000)" fill="#FFFFFF">
                        <g id="icon">
                            <path d="M14.4930812,9.5671154 C14.4889877,7.23901629 13.0812963,5.25371344 11.098248,4.46749213 L11.098248,14.6667387 C13.0812963,13.8795769 14.4889877,11.896155 14.4930812,9.5671154 L14.4930812,9.5671154 Z M7.31408249,14.6648578 L7.31408249,4.46843258 C5.33285351,5.25700503 3.92743625,7.23995675 3.92243315,9.5671154 C3.92743625,11.894274 5.33285351,13.8772258 7.31408249,14.6648578 L7.31408249,14.6648578 Z M9.20707493,0.945954212 C4.60194557,0.947835124 0.871449664,4.80605633 0.870540009,9.5671154 C0.871449664,14.3277042 4.60194557,18.1854552 9.20707493,18.1863957 C13.8126591,18.1854552 17.5445195,14.3277042 17.545884,9.5671154 C17.5445195,4.80605633 13.8126591,0.947835124 9.20707493,0.945954212 L9.20707493,0.945954212 Z M9.18706251,18.9998902 C4.1475728,19.0248123 0,14.803575 0,9.66539306 C0,4.05039984 4.1475728,0.166316095 9.18706251,0.167256551 L11.5485274,0.167256551 C16.5279798,0.166316095 21.0735268,4.04851893 21.0735268,9.66539306 C21.0735268,14.8016941 16.5279798,18.9998902 11.5485274,18.9998902 L9.18706251,18.9998902 L9.18706251,18.9998902 Z"></path>
                        </g>
                    </g>
                </g>
            </g>
        </g>
    </g>
</svg>