<?xml version="1.0" encoding="UTF-8" standalone="no"?>
<svg width="49px" height="31px" viewBox="0 0 49 31" version="1.1" xmlns="http://www.w3.org/2000/svg" xmlns:xlink="http://www.w3.org/1999/xlink">
    <!-- Generator: Sketch 3.6.1 (26313) - http://www.bohemiancoding.com/sketch -->
    <title>elo</title>
    <desc>Created with Sketch.</desc>
    <defs></defs>
    <g id="Checkout" stroke="none" stroke-width="1" fill="none" fill-rule="evenodd">
        <g id="pagamento" transform="translate(-634.000000, -376.000000)">
            <g transform="translate(442.000000, 230.000000)" id="elo">
                <g transform="translate(192.000000, 146.000000)">
                    <g id="card" fill="#231F1F">
                        <rect x="0.0187589121" y="0.141989712" width="48" height="29.8956027" rx="3"></rect>
                    </g>
                    <g id="logo" transform="translate(6.000000, 9.000000)">
                        <path d="M5.50092462,3.08875 C5.89720349,2.95183333 6.32113159,2.8775 6.76222963,2.8775 C8.68727756,2.8775 10.2930292,4.29108333 10.661417,6.16891667 L13.3893407,5.59391667 C12.7634039,2.40241667 10.0345129,0 6.76222963,0 C6.01304009,0 5.29190283,0.126166667 4.61872854,0.358583333 L5.50092462,3.08875 Z" id="Fill-1" fill="#FFF100"></path>
                        <path d="M2.28215033,12.2266917 L4.12650763,10.0711083 C3.30315686,9.31735833 2.78362527,8.21694167 2.78362527,6.99044167 C2.78362527,5.76469167 3.30275381,4.664275 4.12578214,3.91110833 L2.28045752,1.755775 C0.881551198,3.03635833 0,4.90694167 0,6.99044167 C0,9.07485833 0.882840959,10.9461083 2.28215033,12.2266917" id="Fill-3" fill="#00A4E0"></path>
                        <path d="M10.6604336,7.81604167 C10.290756,9.692375 8.68581046,11.1032917 6.76221351,11.1032917 C6.32087364,11.1032917 5.89605882,11.0287917 5.49969935,10.8915417 L4.6161329,13.621375 C5.29043573,13.8547917 6.01197603,13.9810417 6.76221351,13.9810417 C10.0319172,13.9810417 12.7593573,11.5817917 13.3878736,8.39354167 L10.6604336,7.81604167 Z" id="Fill-5" fill="#EE4023"></path>
                        <path d="M22.4693745,9.74475833 C22.0189257,10.1977583 21.408063,10.4737583 20.7335989,10.4638417 C20.2713004,10.4558417 19.8429388,10.3127583 19.4787427,10.0743417 L18.5758298,11.561675 C19.1941893,11.9657583 19.923307,12.2048417 20.7093353,12.217425 C21.8535139,12.2350083 22.8963658,11.7703417 23.6546643,11.0030917 L22.4693745,9.74475833 Z" id="Fill-7" fill="#FEFEFE"></path>
                        <path d="M18.357159,8.21545833 C18.346841,8.116625 18.3396667,8.01529167 18.3424074,7.91304167 C18.3638497,6.52520833 19.4685294,5.41779167 20.8099608,5.44079167 C21.5401264,5.450875 22.1884728,5.79654167 22.6267495,6.33154167 L18.357159,8.21545833 Z M20.8345468,3.685375 C18.5577168,3.64929167 16.6813573,5.529625 16.6470174,7.88520833 C16.6337168,8.76804167 16.8804641,9.59354167 17.3146296,10.2797083 L24.7887102,6.97720833 C24.3681678,5.11604167 22.7670109,3.71670833 20.8345468,3.685375 L20.8345468,3.685375 Z" id="Fill-9" fill="#FEFEFE"></path>
                        <path d="M27.1332608,1.76310833 L27.1332608,10.000275 L28.5158839,10.592775 L27.8618142,12.2174417 L26.494507,11.6298583 C26.1870603,11.492025 25.9790059,11.282025 25.8209296,11.0448583 C25.669141,10.8021917 25.5566094,10.470525 25.5566094,10.0229417 L25.5566094,1.76310833 L27.1332608,1.76310833 Z" id="Fill-11" fill="#FEFEFE"></path>
                        <path d="M32.1176203,5.56966667 C32.3594503,5.48575 32.6182891,5.44075 32.8876072,5.44075 C34.0625789,5.44075 35.0426355,6.30333333 35.2670538,7.44983333 L36.9324569,7.09891667 C36.550446,5.15075 34.8845593,3.68416667 32.8876072,3.68416667 C32.4299841,3.68416667 31.9902564,3.76125 31.579629,3.903 L32.1176203,5.56966667 Z" id="Fill-13" fill="#FEFEFE"></path>
                        <path d="M30.1532185,11.1469333 L31.2785344,9.83135 C30.7759309,9.37135 30.459456,8.69951667 30.459456,7.95068333 C30.459456,7.2026 30.7759309,6.53118333 31.2780508,6.07143333 L30.1519288,4.75585 C29.298188,5.53751667 28.7602773,6.67968333 28.7602773,7.95068333 C28.7602773,9.22326667 29.2985911,10.3650167 30.1532185,11.1469333" id="Fill-15" fill="#FEFEFE"></path>
                        <path d="M35.267078,8.454875 C35.0413699,9.59970833 34.0614745,10.4615417 32.8875508,10.4615417 C32.6180715,10.4615417 32.3590715,10.4157917 32.1168383,10.332125 L31.5775573,11.9982083 C31.9893133,12.140625 32.4296052,12.217875 32.8875508,12.217875 C34.8827294,12.217875 36.5481325,10.753375 36.9319974,8.807375 L35.267078,8.454875 Z" id="Fill-17" fill="#FEFEFE"></path>
                    </g>
                </g>
            </g>
        </g>
    </g>
</svg>