<?xml version="1.0" encoding="UTF-8" standalone="no"?>
<svg width="49px" height="31px" viewBox="0 0 49 31" version="1.1" xmlns="http://www.w3.org/2000/svg" xmlns:xlink="http://www.w3.org/1999/xlink">
    <!-- Generator: Sketch 3.6.1 (26313) - http://www.bohemiancoding.com/sketch -->
    <title>maestro</title>
    <desc>Created with Sketch.</desc>
    <defs></defs>
    <g id="Checkout" stroke="none" stroke-width="1" fill="none" fill-rule="evenodd">
        <g id="pagamento" transform="translate(-448.000000, -706.000000)">
            <g transform="translate(442.000000, 230.000000)" id="maestro">
                <g transform="translate(6.000000, 476.000000)">
                    <g id="card" fill="#14457C">
                        <rect x="0.0250118828" y="0.189319616" width="48" height="29.8956027" rx="3"></rect>
                    </g>
                    <g id="logo" transform="translate(9.000000, 6.000000)">
                        <path d="M31.9414309,9.76434128 C31.9414309,15.1571883 27.6783359,19.528374 22.4182509,19.528374 C17.1592195,19.528374 12.8955224,15.1571883 12.8955224,9.76434128 C12.8955224,4.37134001 17.1592195,0 22.4182509,0 C27.6783359,0 31.9414309,4.37134001 31.9414309,9.76434128" id="Fill-356" fill="#CC0000"></path>
                        <path d="M14.9554505,15.9649812 C14.6925064,15.6380063 14.450333,15.2925148 14.2301343,14.9308211 L17.60521,14.9308211 C17.8077988,14.5993714 17.9906706,14.2540341 18.1539759,13.8968153 L13.6816694,13.8968153 C13.529201,13.5622795 13.3937405,13.2172509 13.2784484,12.8631182 L18.5564443,12.8631182 C18.8743252,11.8894461 19.0460591,10.8478793 19.0460591,9.76434128 C19.0460591,9.05484143 18.9723083,8.36293248 18.8323324,7.69663836 L13.0033129,7.69663836 C13.0770637,7.34435733 13.17008,6.99963731 13.2796525,6.66263259 L18.5558423,6.66263259 C18.4400987,6.30849989 18.3053907,5.96362556 18.1530728,5.62908975 L13.6825725,5.62908975 C13.8458778,5.27187092 14.0292011,4.9271509 14.2311879,4.59492967 L17.6041564,4.59492967 C17.3841082,4.2341618 17.1413328,3.88928747 16.8788402,3.56184974 L14.9566546,3.56184974 C15.2524102,3.19382948 15.5737528,2.84833793 15.9178227,2.5284612 C14.2275756,0.957161285 11.9841978,0 9.52348107,0 C4.26369712,0 0,4.37134001 0,9.76434128 C0,15.1571883 4.26369712,19.528374 9.52348107,19.528374 C11.9843483,19.528374 14.2278766,18.5712127 15.9178227,17.00053 C16.2623441,16.680036 16.5841382,16.3337729 16.8798938,15.9649812 L14.9554505,15.9649812" id="Fill-357" fill="#0066CC"></path>
                        <path d="M16.1307727,12.3390541 C15.7237889,12.4495373 15.3302006,12.5035445 14.9141861,12.5026187 C13.5868229,12.5013842 12.8955224,11.8815363 12.8955224,10.6961561 C12.8955224,9.31125808 13.7755646,8.29268293 14.9701765,8.29268293 C15.9472988,8.29268293 16.5710196,8.86377013 16.5710196,9.75859171 C16.5710196,10.0554768 16.5288763,10.3448009 16.4254747,10.7537123 L14.0649988,10.7537123 C13.9810132,11.3326691 14.3932649,11.5868114 15.0951012,11.5868114 C15.5154806,11.5868114 15.8955228,11.5093497 16.3166547,11.3357553 L16.1307727,12.3390541 L16.1307727,12.3390541 Z M15.4960646,9.93696967 C15.4960646,9.84963237 15.6273108,9.22808704 14.9441379,9.2146624 C14.5669555,9.2146624 14.2964858,9.47173651 14.1870638,9.93696967 L15.4960646,9.93696967 L15.4960646,9.93696967 Z" id="Fill-359" fill="#000066"></path>
                        <path d="M16.6954586,9.66477355 C16.6954586,10.1762986 16.9763136,10.529814 17.614935,10.7929061 C18.1030446,10.9978247 18.1798056,11.0572326 18.1798056,11.240394 C18.1798056,11.4942277 17.9642728,11.6105746 17.4853444,11.6074885 C17.1257718,11.6048653 16.7975056,11.5599622 16.4102389,11.4499418 L16.238806,12.3830314 C16.5831769,12.4649679 17.0658681,12.4918172 17.493773,12.5020014 C18.7684571,12.5020014 19.3569581,12.0741104 19.3569581,11.1491991 C19.3569581,10.5930796 19.1114734,10.2661048 18.5061151,10.022301 C18.0000946,9.81491347 17.9407929,9.77031899 17.9407929,9.58252835 C17.9407929,9.36217912 18.1412746,9.25077005 18.5321536,9.25077005 C18.7692097,9.25077005 19.0935625,9.27299014 19.4015096,9.31125808 L19.5741466,8.37307645 C19.2604801,8.32848196 18.7847124,8.29268293 18.5091254,8.29268293 C17.1587338,8.29268293 16.6913948,8.91592562 16.6954586,9.66477355" id="Fill-360" fill="#000066"></path>
                        <path d="M11.9021027,12.4358041 L10.9118858,12.4358041 L10.9355161,12.0105362 C10.6335895,12.3459979 10.2312716,12.50231 9.68551597,12.50231 C9.0395195,12.50231 8.59701493,12.0494214 8.59701493,11.398095 C8.59701493,10.4080665 9.36628053,9.83697926 10.6889779,9.83697926 C10.82489,9.83697926 10.997828,9.84747208 11.1754319,9.8679948 C11.2121567,9.73544579 11.2220905,9.6783525 11.2220905,9.60644581 C11.2220905,9.33548415 11.0139328,9.23564804 10.4573403,9.23564804 C9.9085744,9.23780833 9.53831547,9.32128798 9.19469712,9.41587767 L9.36387234,8.50763145 C9.95809277,8.35270803 10.3470152,8.29268293 10.787262,8.29268293 C11.8114946,8.29268293 12.3524338,8.70468045 12.3524338,9.47837168 C12.361013,9.68498766 12.291025,10.0994541 12.2556548,10.2809182 C12.2156186,10.5446274 11.9317535,12.0747276 11.9021027,12.4358041 L11.9021027,12.4358041 Z M11.0328972,10.6294958 C10.9075209,10.6168427 10.8528852,10.6129851 10.766943,10.6129851 C10.0915967,10.6129851 9.74918244,10.8191381 9.74918244,11.2260436 C9.74918244,11.4815746 9.9162505,11.6412815 10.1767864,11.6412815 C10.6620363,11.6412815 11.0124276,11.2251177 11.0328972,10.6294958 L11.0328972,10.6294958 Z" id="Fill-361" fill="#000066"></path>
                        <path d="M21.3735189,12.271382 C21.0487145,12.3625769 20.7954032,12.4023879 20.5216223,12.4023879 C19.91506,12.4023879 19.5837836,12.0845172 19.5837836,11.5185221 C19.5646686,11.3629814 19.7129227,10.6445318 19.7466373,10.4443967 C19.7800509,10.2436443 20.3054875,7.31707317 20.3054875,7.31707317 L21.4839945,7.31707317 L21.3057886,8.28549881 L21.9102438,8.28549881 L21.7460355,9.27352133 L21.1388711,9.27352133 C21.1388711,9.27352133 20.8057885,10.9889432 20.8057885,11.1201035 C20.8057885,11.3279539 20.9286061,11.4183773 21.2108157,11.4183773 C21.3456742,11.4183773 21.4499789,11.4054156 21.5305027,11.3807266 L21.3735189,12.271382" id="Fill-362" fill="#000066"></path>
                        <path d="M26.8584702,8.299338 C25.9946832,8.299338 25.3197885,8.66427214 24.9277053,9.27285574 L25.2680124,8.36985593 C24.6409804,8.13392177 24.2367058,8.47077218 23.8714138,8.94942997 C23.8714138,8.94942997 23.8101555,9.02889766 23.7490477,9.10157587 L23.7490477,8.39192171 L22.6424853,8.39192171 C22.4925756,9.64442504 22.2275244,10.9146736 22.0202697,12.1699544 L21.9701493,12.4429221 L23.1605468,12.4429221 C23.2735811,11.8059461 23.3662963,11.2890204 23.4587106,10.8767143 C23.7115703,9.7456499 24.1372176,9.40000404 24.77614,9.55307578 C24.6286385,9.87789031 24.5478136,10.2543974 24.5478136,10.6708698 C24.5478136,11.6820383 25.0830335,12.5092737 26.4128049,12.5092737 C27.7544667,12.5092737 28.7260201,11.7744677 28.7260201,10.0988568 C28.7260201,9.08830554 28.0785185,8.299338 26.8584702,8.299338 L26.8584702,8.299338 Z M26.5119921,11.5264976 C26.0916128,11.5331328 25.8366458,11.1714391 25.8366458,10.630133 C25.8366458,9.98883646 26.2085604,9.26406029 26.8062426,9.26406029 C27.2884823,9.26406029 27.4535937,9.65615231 27.4535937,10.0738592 C27.4535937,10.9861173 27.0889037,11.5264976 26.5119921,11.5264976 L26.5119921,11.5264976 Z" id="Fill-363" fill="#000066"></path>
                        <path d="M8.02927857,12.2675243 L6.84369745,12.2675243 L7.54824299,8.46171647 L5.92617776,12.2675243 L4.84550333,12.2675243 L4.6480319,8.48409087 L3.94122868,12.2675243 L2.86567164,12.2675243 L3.78168621,7.31707317 L5.63433546,7.31707317 L5.78861001,10.0768393 L6.96230071,7.31707317 L8.96365558,7.31707317 L8.02927857,12.2675243" id="Fill-364" fill="#000066"></path>
                        <path d="M16.1304716,11.8510949 C15.7237889,11.9617325 15.3300501,12.0157396 14.9141861,12.0148138 C13.5868229,12.0135793 12.8955224,11.3935771 12.8955224,10.2083512 C12.8955224,8.8234532 13.7754141,7.80487805 14.9698755,7.80487805 C15.9471483,7.80487805 16.5710196,8.37596525 16.5710196,9.27063253 C16.5710196,9.56751764 16.5287258,9.85622451 16.4254747,10.2659074 L14.0651493,10.2659074 C13.9810132,10.844247 14.3929639,11.0988522 15.0948002,11.0988522 C15.5151796,11.0988522 15.8955228,11.0213905 16.3165042,10.8474875 L16.1304716,11.8510949 L16.1304716,11.8510949 Z M15.4957635,9.44916479 C15.4957635,9.36167318 15.6270098,8.74028216 14.9441379,8.72670322 C14.5669555,8.72670322 14.2964858,8.98377733 14.1867628,9.44916479 L15.4957635,9.44916479 L15.4957635,9.44916479 Z" id="Fill-366" fill="#FFFFFF"></path>
                        <path d="M17.1733716,9.17681437 C17.1733716,9.68849369 17.454076,10.0417006 18.0925469,10.3051012 C18.5809576,10.5101741 18.6575681,10.5694277 18.6575681,10.7521262 C18.6575681,11.0064228 18.4418847,11.1227697 17.9634078,11.1198379 C17.6033837,11.1170604 17.2751176,11.0721573 16.8881518,10.962137 L16.7164179,11.8949179 C17.0609393,11.9771631 17.5439316,12.0040123 17.971385,12.0143509 C19.2460691,12.0143509 19.8348711,11.5863055 19.8348711,10.6610856 C19.8348711,10.1052747 19.5892359,9.77799128 18.9838776,9.53449611 C18.477857,9.3272629 18.4184049,9.28205119 18.4184049,9.09487778 C18.4184049,8.87452855 18.6191876,8.76265656 19.0099161,8.76265656 C19.2469721,8.76265656 19.5711745,8.78533957 19.879272,8.8236075 L20.051909,7.88542588 C19.7382425,7.84021417 19.2624748,7.80487805 18.9871888,7.80487805 C17.6364963,7.80487805 17.1691573,8.42781213 17.1733716,9.17681437" id="Fill-367" fill="#FFFFFF"></path>
                        <path d="M12.3800156,11.9478449 L11.3894977,11.9478449 L11.4134291,11.522577 C11.111352,11.8577301 10.7093351,12.0138879 10.1634289,12.0138879 C9.51758297,12.0138879 9.07462687,11.5611536 9.07462687,10.9098272 C9.07462687,9.92010728 9.84404298,9.34902007 11.1667403,9.34902007 C11.3026524,9.34902007 11.4754399,9.3596672 11.6533448,9.37941839 C11.6900697,9.24717799 11.699853,9.19054762 11.699853,9.11848663 C11.699853,8.84690774 11.4918457,8.74753455 10.9354037,8.74753455 C10.3864874,8.74984915 10.0162284,8.83332879 9.6727606,8.92807279 L9.84148428,8.01967226 C10.4358552,7.86474885 10.8246271,7.80487805 11.265175,7.80487805 C12.2894075,7.80487805 12.8301963,8.21641265 12.8301963,8.99041249 C12.8390765,9.19718278 12.768637,9.61087768 12.7337183,9.79295898 C12.6932306,10.0566683 12.4095159,11.5867684 12.3800156,11.9478449 L12.3800156,11.9478449 Z M11.5106597,10.141691 C11.3854339,10.1284206 11.3306476,10.1250259 11.2445549,10.1250259 C10.5695097,10.1250259 10.2269449,10.3308703 10.2269449,10.7374672 C10.2269449,10.9934611 10.394314,11.1534766 10.6543983,11.1534766 C11.1399492,11.1534766 11.4903406,10.7368499 11.5106597,10.141691 L11.5106597,10.141691 Z" id="Fill-368" fill="#FFFFFF"></path>
                        <path d="M21.851006,12.271382 C21.5260511,12.3627312 21.2728903,12.4025422 20.9989589,12.4025422 C20.3923965,12.4025422 20.0614212,12.0845172 20.0614212,11.5185221 C20.0421557,11.3629814 20.1904098,10.6445318 20.2239739,10.4443967 C20.2576885,10.2436443 20.7831251,7.31707317 20.7831251,7.31707317 L21.9614816,7.31707317 L21.7834262,8.2851902 L22.3878815,8.2851902 L22.2235226,9.27352133 L21.6165087,9.27352133 C21.6165087,9.27352133 21.2831251,10.9889432 21.2831251,11.1194863 C21.2831251,11.3281082 21.4060932,11.4179144 21.6883028,11.4179144 C21.8231613,11.4179144 21.9273155,11.4055699 22.0082908,11.3805723 L21.851006,12.271382" id="Fill-369" fill="#FFFFFF"></path>
                        <path d="M27.7419019,9.57862768 C27.7419019,10.4916574 27.3767604,11.0320377 26.7998488,11.0320377 C26.3794695,11.0382099 26.1246531,10.6769791 26.1246531,10.135673 C26.1246531,9.4943765 26.4965676,8.76944603 27.0940993,8.76944603 C27.5764895,8.76944603 27.7419019,9.16153806 27.7419019,9.57862768 L27.7419019,9.57862768 Z M29.0140273,9.60424251 C29.0140273,8.59384559 28.3663752,7.80487805 27.1466279,7.80487805 C25.7434068,7.80487805 24.8358209,8.7637367 24.8358209,10.1764099 C24.8358209,11.187424 25.3710407,12.0148138 26.7009626,12.0148138 C28.0426244,12.0148138 29.0140273,11.2800077 29.0140273,9.60424251 L29.0140273,9.60424251 Z" id="Fill-370" fill="#FFFFFF"></path>
                        <path d="M22.6421843,7.84931471 C22.4924251,9.10212665 22.2272233,10.3722209 22.0201192,11.6273474 L21.9701493,11.900778 L23.1603962,11.900778 C23.5893548,9.47647347 23.7333945,8.78595327 24.6324013,9.02898552 L25.0648215,7.88202762 C24.437639,7.64609346 24.034117,7.98309818 23.668825,8.46206458 C23.701787,8.24649884 23.7637979,8.03833979 23.7488972,7.84931471 L22.6421843,7.84931471" id="Fill-371" fill="#FFFFFF"></path>
                        <path d="M8.50689051,12.2676786 L7.32161041,12.2676786 L8.02600544,8.46187078 L6.4037897,12.2676786 L5.32311527,12.2676786 L5.12549333,8.48409087 L4.4186901,12.2676786 L3.34328358,12.2676786 L4.25914764,7.31707317 L6.1119474,7.31707317 L6.20978004,10.3819027 L7.51396444,7.31707317 L9.44126752,7.31707317 L8.50689051,12.2676786" id="Fill-372" fill="#FFFFFF"></path>
                    </g>
                </g>
            </g>
        </g>
    </g>
</svg>