<?xml version="1.0" encoding="UTF-8" standalone="no"?>
<svg width="49px" height="31px" viewBox="0 0 49 31" version="1.1" xmlns="http://www.w3.org/2000/svg" xmlns:xlink="http://www.w3.org/1999/xlink">
    <!-- Generator: Sketch 3.6.1 (26313) - http://www.bohemiancoding.com/sketch -->
    <title>mastercard</title>
    <desc>Created with Sketch.</desc>
    <defs></defs>
    <g id="Checkout" stroke="none" stroke-width="1" fill="none" fill-rule="evenodd">
        <g id="pagamento" transform="translate(-465.000000, -376.000000)">
            <g transform="translate(442.000000, 230.000000)" id="mastercard">
                <g transform="translate(23.000000, 146.000000)">
                    <g id="card" fill="#14457C">
                        <rect x="0.0250118828" y="0.189319616" width="48" height="29.8956027" rx="3"></rect>
                    </g>
                    <g id="logo" transform="translate(8.000000, 6.000000)">
                        <path d="M19.5903207,9.87377303 C19.5903207,15.3270592 15.2127207,19.747234 9.81245991,19.747234 C4.41173556,19.747234 0.033826509,15.3270592 0.033826509,9.87377303 C0.033826509,4.42064292 4.41173556,0 9.81245991,0 C15.2127207,0 19.5903207,4.42064292 19.5903207,9.87377303" id="Fill-2" fill="#D82331"></path>
                        <path d="M23.0364309,0 C20.5094482,0 18.2074571,0.967888463 16.471808,2.55570613 C16.118868,2.87932385 15.789107,3.22884346 15.4851521,3.60098823 L17.4604728,3.60098823 C17.7302772,3.93271979 17.9790659,4.28145922 18.2059118,4.64673842 L14.7392494,4.64673842 C14.5320285,4.98237087 14.3433509,5.33111031 14.1759979,5.69248862 L18.7691633,5.69248862 C18.9261629,6.03092971 19.0643102,6.37951311 19.1832961,6.73777071 L13.7618651,6.73777071 C13.6489058,7.0783963 13.5538716,7.42713574 13.4776897,7.78289677 L19.467008,7.78289677 C19.6102547,8.45697031 19.6865911,9.15632161 19.6865911,9.87377303 C19.6865911,10.9699227 19.509812,12.025035 19.1832961,13.0103995 L13.7618651,13.0103995 C13.8806965,13.368501 14.0189983,13.7173965 14.1756889,14.0563057 L18.7691633,14.0563057 C18.6013468,14.4167478 18.4135963,14.7657993 18.2051392,15.1018999 L14.7392494,15.1018999 C14.9654772,15.4660868 15.2147295,15.8152944 15.4851521,16.1465578 L17.4598547,16.1465578 C17.1563633,16.5190147 16.8264478,16.8685343 16.4722716,17.192152 C18.2077661,18.7799697 20.5094482,19.747234 23.0364309,19.747234 C28.4366917,19.747234 32.8146008,15.3270592 32.8146008,9.87377303 C32.8146008,4.42111103 28.4366917,0 23.0364309,0" id="Fill-3" fill="#F1AB3D"></path>
                        <path d="M31.4028406,15.2981926 C31.4028406,15.1221845 31.5443875,14.979412 31.7188486,14.979412 C31.8936189,14.979412 32.0345476,15.1221845 32.0345476,15.2981926 C32.0345476,15.4743567 31.8936189,15.6172853 31.7188486,15.6172853 C31.5443875,15.6172853 31.4028406,15.4743567 31.4028406,15.2981926 L31.4028406,15.2981926 Z M31.7188486,15.5408279 C31.8509694,15.5408279 31.9588293,15.4320711 31.9588293,15.2981926 C31.9588293,15.163846 31.8509694,15.0560254 31.7188486,15.0560254 C31.5861098,15.0560254 31.4785589,15.163846 31.4785589,15.2981926 C31.4785589,15.4320711 31.5861098,15.5408279 31.7188486,15.5408279 L31.7188486,15.5408279 Z M31.6760446,15.4381565 L31.6111432,15.4381565 L31.6111432,15.1583847 L31.7287384,15.1583847 C31.7529991,15.1583847 31.7780325,15.1583847 31.7996663,15.1718038 C31.8217637,15.1877194 31.834744,15.2144015 31.834744,15.2421758 C31.834744,15.273851 31.8166643,15.3034978 31.7865315,15.3147324 L31.8378346,15.4381565 L31.7659794,15.4381565 L31.7233299,15.3275273 L31.6760446,15.3275273 L31.6760446,15.4381565 L31.6760446,15.4381565 Z M31.6760446,15.2793123 L31.7118949,15.2793123 C31.7251843,15.2793123 31.7394008,15.2802485 31.7514539,15.273851 C31.7619617,15.2668294 31.7676792,15.2543466 31.7676792,15.2415517 C31.7676792,15.2309413 31.760571,15.2184584 31.7517629,15.2129972 C31.7403279,15.2062877 31.7224028,15.207692 31.7103496,15.207692 L31.6760446,15.207692 L31.6760446,15.2793123 L31.6760446,15.2793123 Z" id="registered" fill="#F1AB3D"></path>
                        <path d="M31.4028406,12.1777938 C31.4028406,12.0010056 31.5446965,11.8587011 31.7182305,11.8587011 C31.8930008,11.8587011 32.0339295,12.0010056 32.0339295,12.1777938 C32.0339295,12.3533338 31.8930008,12.4965744 31.7182305,12.4965744 C31.5446965,12.4965744 31.4028406,12.3533338 31.4028406,12.1777938 L31.4028406,12.1777938 Z M31.7182305,12.420117 C31.8512784,12.420117 31.9588293,12.3113603 31.9588293,12.1777938 C31.9588293,12.0440714 31.8512784,11.9353146 31.7182305,11.9353146 C31.5858008,11.9353146 31.4785589,12.0440714 31.4785589,12.1777938 C31.4785589,12.3113603 31.5858008,12.420117 31.7182305,12.420117 L31.7182305,12.420117 Z M31.6757356,12.3171336 L31.6111432,12.3171336 L31.6111432,12.0373618 L31.7284293,12.0373618 C31.7529991,12.0373618 31.7777235,12.0382981 31.7992028,12.0517171 C31.8220728,12.0668526 31.834435,12.0936907 31.834435,12.121465 C31.834435,12.1531402 31.8163553,12.182787 31.7868406,12.1940215 L31.8378346,12.3171336 L31.7659794,12.3171336 L31.7233299,12.2065044 L31.6757356,12.2065044 L31.6757356,12.3171336 L31.6757356,12.3171336 Z M31.6757356,12.1586015 L31.7115859,12.1586015 C31.7245661,12.1586015 31.7397098,12.1598497 31.7511448,12.1531402 C31.7616527,12.1464307 31.7670611,12.1330116 31.7670611,12.1208409 C31.7670611,12.1102304 31.76088,12.0983717 31.7517629,12.0918182 C31.740637,12.0855768 31.7224028,12.0872932 31.7103496,12.0872932 L31.6757356,12.0872932 L31.6757356,12.1586015 L31.6757356,12.1586015 Z" id="registered" fill="#FFFFFF"></path>
                        <path d="M30.4025863,7.64574153 L30.1666233,9.09265911 C29.8768849,8.70709528 29.565049,8.42779166 29.1533887,8.42779166 C28.617643,8.42779166 28.1302643,8.83785307 27.8110112,9.44171061 C27.366282,9.34855739 26.9070273,9.19018132 26.9070273,9.19018132 L26.9067183,9.19408221 C26.9419505,8.85657733 26.9570941,8.65123456 26.95354,8.58101857 L25.9783191,8.58101857 C25.8458893,9.84194178 25.6094627,11.1186246 25.4251118,12.3800159 L25.3762812,12.6540143 L26.4386555,12.6540143 C26.5819022,11.7140562 26.6914619,10.9326302 26.7724342,10.3137933 C27.1354185,9.9825298 27.3171424,9.69417612 27.6832173,9.71290038 C27.5209637,10.1095427 27.4260841,10.5661027 27.4260841,11.0345214 C27.4260841,12.0523413 27.9358692,12.7243863 28.7078869,12.7243863 C29.0969863,12.7243863 29.3953782,12.5887914 29.6866619,12.2748479 L29.6365951,12.6537022 L30.6410217,12.6537022 L31.4495078,7.64574153 L30.4025863,7.64574153 L30.4025863,7.64574153 Z M29.0748889,11.71312 C28.7136044,11.71312 28.5307987,11.4425544 28.5307987,10.9101611 C28.5307987,10.1095427 28.8727674,9.54204147 29.3541195,9.54204147 C29.7189581,9.54204147 29.9165983,9.8222813 29.9165983,10.3396952 C29.9165983,11.1471791 29.5689122,11.71312 29.0748889,11.71312 L29.0748889,11.71312 Z" id="Fill-12" fill="#0B2D5A"></path>
                        <path d="M24.2999995,10.931694 C24.1892036,10.918587 24.1400639,10.9149982 24.0637275,10.9149982 C23.4621533,10.9149982 23.1575802,11.1231496 23.1575802,11.5346153 C23.1575802,11.787861 23.3062354,11.9499819 23.5380261,11.9499819 C23.9700841,11.9499819 24.2822289,11.5343033 24.2999995,10.931694 L24.2999995,10.931694 Z M25.0726354,12.7459192 L24.1932213,12.7459192 L24.2131553,12.3241552 C23.9447416,12.657291 23.5868567,12.8166033 23.1008688,12.8166033 C22.5251006,12.8166033 22.1312108,12.3625399 22.1312108,11.7037579 C22.1312108,10.7116839 22.8166933,10.1340403 23.9946539,10.1340403 C24.1150305,10.1340403 24.2689396,10.1451188 24.4267118,10.1657155 C24.4596261,10.0309008 24.4684342,9.97363577 24.4684342,9.90061114 C24.4684342,9.63129379 24.2840832,9.53096294 23.7878965,9.53096294 C23.2686853,9.52472152 22.8407995,9.65532327 22.664175,9.71352453 C22.6754555,9.64611717 22.8114394,8.79775193 22.8114394,8.79775193 C23.3405404,8.64109225 23.6891537,8.58195478 24.0818072,8.58195478 C24.9933629,8.58195478 25.4764148,8.995605 25.4753331,9.77640685 C25.477342,9.98565051 25.443037,10.2445135 25.3895706,10.5834227 C25.2974724,11.1727689 25.0998321,12.4385292 25.0726354,12.7459192 L25.0726354,12.7459192 Z" id="a" fill="#0C2D5A"></path>
                        <path d="M21.4998128,8.73018854 C21.7946507,8.73018854 22.0698635,8.80758217 22.4484551,9.0004421 L22.6222981,7.91365455 C22.4662257,7.85186448 21.919045,7.48970599 21.4554635,7.48970599 C20.7452567,7.48970599 20.1439915,7.84609117 19.7221323,8.43294084 C19.105878,8.22697392 18.8522989,8.64327675 18.5420084,9.05833129 L18.2661774,9.12324207 C18.2870386,8.98671097 18.3060454,8.85096005 18.3000189,8.71364878 L17.3244889,8.71364878 C17.1917501,9.97457199 16.9557871,11.2512548 16.7709726,12.5126461 L16.7227601,12.7866445 L17.7848253,12.7866445 C17.9619134,11.6235556 18.058802,10.87911 18.1179859,10.3748031 L18.5179022,10.1510482 C18.5780132,9.92620097 18.7645275,9.85067977 19.1395649,9.85988586 C19.0907344,10.1254584 19.0641557,10.4052301 19.0641557,10.694676 C19.0641557,12.0273756 19.7769895,12.8570165 20.9194088,12.8570165 C21.2136285,12.8570165 21.4665895,12.8180077 21.8580068,12.7103431 L22.043903,11.5690992 C21.6920446,11.743703 21.4038515,11.8259337 21.1423915,11.8259337 C20.52521,11.8259337 20.1518724,11.3657849 20.1518724,10.6057358 C20.1518724,9.50272051 20.706934,8.73018854 21.4998128,8.73018854" id="Fill-11" fill="#0C2D5A"></path>
                        <path d="M16.3576124,12.6518298 C15.9950917,12.7638633 15.6447786,12.8169154 15.2746861,12.8166033 C14.0931714,12.8158232 13.4776897,12.1924612 13.4776897,10.9997255 C13.4776897,9.60710829 14.2608334,8.58195478 15.3238257,8.58195478 C16.1945863,8.58195478 16.7499569,9.1558535 16.7499569,10.0566467 C16.7499569,10.3551427 16.7113251,10.646461 16.6201541,11.0579267 L14.5187392,11.0579267 C14.4473476,11.6488333 14.822076,11.8953695 15.4357034,11.8953695 C15.8132132,11.8953695 16.1541002,11.8164155 16.5333098,11.638535 L16.3576124,12.6518298 L16.3576124,12.6518298 Z M15.7645372,10.2365557 C15.7702547,10.1513603 15.8762603,9.50958607 15.2732953,9.50958607 C14.9373533,9.50958607 14.6970635,9.76876111 14.5990933,10.2365557 L15.7645372,10.2365557 L15.7645372,10.2365557 Z" id="e" fill="#0C2D5A"></path>
                        <path d="M13.0708062,12.7410821 C12.7804497,12.8334552 12.5539128,12.8735563 12.3083692,12.8735563 C11.7656698,12.8735563 11.4692867,12.5585206 11.4692867,11.9791606 C11.4618694,11.7984714 11.547632,11.3258398 11.6150058,10.8933093 C11.6761986,10.5124265 12.0753422,8.11384815 12.0753422,8.11384815 L13.1304537,8.11384815 L13.007141,8.73018854 L13.5487587,8.73018854 L13.4045849,9.70884346 L12.8611128,9.70884346 C12.7385728,10.484028 12.5636481,11.4483277 12.5616392,11.5762768 C12.5616392,11.7869248 12.6728988,11.8780496 12.9253961,11.8780496 C13.0462364,11.8780496 13.1398799,11.8660348 13.2115805,11.8396648 L13.0708062,12.7410821" id="t" fill="#0C2D5A"></path>
                        <path d="M8.9345911,9.96068482 C8.9345911,10.4763823 9.18214361,10.830895 9.74323174,11.0981839 C10.1729718,11.3022784 10.2394185,11.3626642 10.2394185,11.5477223 C10.2394185,11.8015921 10.0499682,11.9161222 9.6298088,11.9161222 C9.31302812,11.9161222 9.01849935,11.8665029 8.67853959,11.7558737 C8.67853959,11.7558737 8.53946514,12.6532341 8.53282047,12.6956758 C8.77403737,12.7490399 8.98929371,12.797723 9.63738063,12.8166033 C10.7577026,12.8166033 11.2750595,12.3861013 11.2750595,11.4553493 C11.2750595,10.8954938 11.0584124,10.567195 10.5266845,10.3206588 C10.0816462,10.1139117 10.0304977,10.0681933 10.0304977,9.87782995 C10.0304977,9.6576638 10.2068132,9.544382 10.5500181,9.544382 C10.7581661,9.544382 11.0429597,9.56778733 11.3127641,9.60617207 L11.4638917,8.66168894 C11.1889879,8.61784295 10.7723826,8.58195478 10.5294659,8.58195478 C9.3419247,8.58195478 8.93103697,9.20828144 8.9345911,9.96068482" id="s" fill="#0C2D5A"></path>
                        <path d="M7.61183858,10.931694 C7.50057902,10.918587 7.45143939,10.9149982 7.37494844,10.9149982 C6.77321967,10.9149982 6.46864663,11.1231496 6.46864663,11.5346153 C6.46864663,11.787861 6.61730176,11.9499819 6.84924703,11.9499819 C7.28176856,11.9499819 7.59344985,11.5343033 7.61183858,10.931694 L7.61183858,10.931694 Z M8.38385629,12.7459192 L7.5044422,12.7459192 L7.52453073,12.3241552 C7.25627158,12.657291 6.89823214,12.8166033 6.41193516,12.8166033 C5.83663053,12.8166033 5.44227721,12.3625399 5.44227721,11.7037579 C5.44227721,10.7116839 6.12822329,10.1340403 7.3058748,10.1340403 C7.42640599,10.1340403 7.58062409,10.1451188 7.73855086,10.1657155 C7.77146514,10.0309008 7.78011866,9.97363577 7.78011866,9.90061114 C7.78011866,9.63129379 7.59514965,9.53096294 7.09942651,9.53096294 C6.57975166,9.52472152 6.15171142,9.65532327 5.97555045,9.71352453 C5.98667641,9.64611717 6.12281484,8.79775193 6.12281484,8.79775193 C6.65176132,8.64109225 7.00068365,8.58195478 7.39333717,8.58195478 C8.30489291,8.58195478 8.78763576,8.995605 8.7867086,9.77640685 C8.78856293,9.98565051 8.7542579,10.2445135 8.70094603,10.5834227 C8.60869331,11.1727689 8.41089854,12.4385292 8.38385629,12.7459192 L8.38385629,12.7459192 Z" id="a" fill="#0C2D5A"></path>
                        <path d="M4.90869492,12.8095817 L3.84724784,12.8095817 L4.45546675,8.95987286 L3.09763657,12.8095817 L2.37414039,12.8095817 L2.28466916,8.98218594 L1.64554482,12.8095817 L0.651935161,12.8095817 L1.48190055,7.80177707 L3.0084744,7.80177707 L3.05096937,10.9018912 L4.08104743,7.80177707 L5.72969774,7.80177707 L4.90869492,12.8095817" id="m" fill="#0C2D5A"></path>
                        <path d="M31.0634989,12.4975107 L30.059536,12.4975107 L30.1092937,12.1185003 C29.81801,12.4325999 29.5194635,12.5681948 29.1305187,12.5681948 C28.3589645,12.5681948 27.8487158,11.8969299 27.8487158,10.8780178 C27.8487158,9.5233172 28.6400494,8.38144911 29.5758659,8.38144911 C29.9876808,8.38144911 30.2993621,8.55121578 30.5897187,8.93693564 L30.8252181,7.48970599 L31.8721396,7.48970599 L31.0634989,12.4975107 L31.0634989,12.4975107 Z M29.4975207,11.5564603 C29.9921621,11.5564603 30.3392301,10.9908315 30.3392301,10.1841277 C30.3392301,9.66655783 30.1415899,9.38553782 29.7765967,9.38553782 C29.2952446,9.38553782 28.953276,9.95303908 28.953276,10.7539695 C28.953276,11.287143 29.1365452,11.5564603 29.4975207,11.5564603 L29.4975207,11.5564603 Z" id="d-2" fill="#FFFFFF"></path>
                        <path d="M26.2872189,8.31360903 C26.1543255,9.57422017 25.9183625,10.851059 25.7337026,12.1122943 L25.6853356,12.3862927 L26.7470917,12.3862927 C27.1267649,9.89565339 27.218245,9.40960267 27.8141018,9.4703005 C27.9088269,8.96053239 28.0852969,8.5141147 28.2169541,8.28911145 C27.7723794,8.19549013 27.5240543,8.44920392 27.1986201,8.93135374 C27.2245806,8.72273422 27.2714024,8.52035612 27.2625943,8.31360903 L26.2872189,8.31360903" id="r-2" fill="#FFFFFF"></path>
                        <path d="M24.6090539,10.6196229 C24.4982579,10.6065159 24.4491183,10.6029271 24.3727818,10.6029271 C23.7712076,10.6029271 23.4666346,10.8110785 23.4666346,11.2225442 C23.4666346,11.4757899 23.6152897,11.6379109 23.8470804,11.6379109 C24.2791384,11.6379109 24.5912832,11.2222322 24.6090539,10.6196229 L24.6090539,10.6196229 Z M25.3816897,12.4338482 L24.5022756,12.4338482 L24.5222096,12.0120841 C24.2537959,12.34522 23.895911,12.5045323 23.4099231,12.5045323 C22.8341549,12.5045323 22.4402651,12.0504688 22.4402651,11.3916868 C22.4402651,10.3996128 23.1257476,9.82196923 24.3037082,9.82196923 C24.4240849,9.82196923 24.5779939,9.83304775 24.7357661,9.85364444 C24.7686804,9.71882973 24.7774885,9.66156469 24.7774885,9.58854006 C24.7774885,9.31922271 24.5931376,9.21889186 24.0969509,9.21889186 C23.5777396,9.21265044 23.1498539,9.34325219 22.9732293,9.40145344 C22.9845098,9.33404609 23.1204937,8.48568085 23.1204937,8.48568085 C23.6495947,8.32902117 23.998208,8.2698837 24.3908615,8.2698837 C25.3024173,8.2698837 25.7854692,8.68353392 25.7843875,9.46433577 C25.7863963,9.67357943 25.7520913,9.93244239 25.6986249,10.2713516 C25.6065267,10.8606978 25.4088865,12.1264581 25.3816897,12.4338482 L25.3816897,12.4338482 Z" id="a-2" fill="#FFFFFF"></path>
                        <path d="M22.9074008,7.59378169 L22.7335577,8.68056924 C22.3545026,8.48817742 22.0799078,8.41031568 21.7852245,8.41031568 C20.9926547,8.41031568 20.4368205,9.18378386 20.4368205,10.2869551 C20.4368205,11.0470043 20.8104672,11.5062169 21.4276486,11.5062169 C21.6889541,11.5062169 21.9777653,11.4246103 22.3291601,11.2493824 L22.1426458,12.3906263 C21.7518466,12.4982908 21.4988857,12.5374558 21.2046659,12.5374558 C20.0616285,12.5374558 19.3497219,11.7076587 19.3497219,10.3752713 C19.3497219,8.58491945 20.3339054,7.33367045 21.7405661,7.33367045 C22.2041476,7.33367045 22.7516374,7.53199162 22.9074008,7.59378169" id="c-2" fill="#FFFFFF"></path>
                        <path d="M17.6343158,8.31360903 C17.5008044,9.57422017 17.2645323,10.851059 17.0801814,12.1122943 L17.0318144,12.3862927 L18.0938796,12.3862927 C18.4738619,9.89565339 18.5650329,9.40960267 19.1599625,9.4703005 C19.2553058,8.96053239 19.4322394,8.5141147 19.5634329,8.28911145 C19.1191674,8.19549013 18.8705331,8.44920392 18.5457171,8.93135374 C18.5713686,8.72273422 18.6184993,8.52035612 18.6090732,8.31360903 L17.6343158,8.31360903" id="r-3" fill="#FFFFFF"></path>
                        <path d="M16.6666668,12.3397587 C16.304146,12.4517922 15.9538329,12.5048443 15.5837404,12.5045323 C14.4022257,12.5037521 13.786744,11.8803901 13.786744,10.6876544 C13.786744,9.2950372 14.5698877,8.2698837 15.63288,8.2698837 C16.5036406,8.2698837 17.0590112,8.84378242 17.0590112,9.7445756 C17.0590112,10.0430716 17.0203794,10.3343899 16.9292084,10.7458557 L14.8277935,10.7458557 C14.756402,11.3367623 15.1311303,11.5832984 15.7447577,11.5832984 C16.1222676,11.5832984 16.4631545,11.5043444 16.8423641,11.3264639 L16.6666668,12.3397587 L16.6666668,12.3397587 Z M16.0735915,9.92448458 C16.079309,9.83928917 16.1853146,9.19751499 15.5823496,9.19751499 C15.2464076,9.19751499 15.0061179,9.45669002 14.9081476,9.92448458 L16.0735915,9.92448458 L16.0735915,9.92448458 Z" id="e-2" fill="#FFFFFF"></path>
                        <path d="M13.3798605,12.4290111 C13.089504,12.5213841 12.8629672,12.5614852 12.6174235,12.5614852 C12.0747241,12.5614852 11.778341,12.2464495 11.778341,11.6670895 C11.7709237,11.4864003 11.8566863,11.0137687 11.9240601,10.5812382 C11.9852529,10.2003554 12.3843966,7.80177707 12.3843966,7.80177707 L13.439508,7.80177707 L13.3161953,8.41811746 L13.8578131,8.41811746 L13.7136392,9.39677238 L13.1701672,9.39677238 C13.0476271,10.1719569 12.8727024,11.1362566 12.8706935,11.2642057 C12.8706935,11.4748537 12.9819531,11.5659785 13.2344505,11.5659785 C13.3552907,11.5659785 13.4489342,11.5539637 13.5206348,11.5275937 L13.3798605,12.4290111" id="t-2" fill="#FFFFFF"></path>
                        <path d="M9.24364542,9.64861374 C9.24364542,10.1643112 9.49119794,10.518824 10.0522861,10.7861128 C10.4820261,10.9902073 10.5484728,11.0505931 10.5484728,11.2356512 C10.5484728,11.4895211 10.3590225,11.6040511 9.93886313,11.6040511 C9.62208244,11.6040511 9.32755367,11.5544318 8.98759391,11.4438026 C8.98759391,11.4438026 8.84851947,12.341163 8.8418748,12.3836047 C9.0830917,12.4369689 9.29834804,12.485652 9.94643496,12.5045323 C11.0667569,12.5045323 11.5841138,12.0740302 11.5841138,11.1432782 C11.5841138,10.5834227 11.3674668,10.2551239 10.8357388,10.0085877 C10.3907006,9.80184064 10.3395521,9.75612223 10.3395521,9.56575887 C10.3395521,9.34559272 10.5158676,9.23231092 10.8590724,9.23231092 C11.0672205,9.23231092 11.352014,9.25571625 11.6218185,9.29410099 L11.772946,8.34961786 C11.4980422,8.30577187 11.081437,8.2698837 10.8385203,8.2698837 C9.65097902,8.2698837 9.2400913,8.89621036 9.24364542,9.64861374" id="s-2" fill="#FFFFFF"></path>
                        <path d="M7.92089291,10.6196229 C7.80963335,10.6065159 7.76049371,10.6029271 7.68400277,10.6029271 C7.08227399,10.6029271 6.77770096,10.8110785 6.77770096,11.2225442 C6.77770096,11.4757899 6.92635609,11.6379109 7.15830136,11.6379109 C7.59082289,11.6379109 7.90250417,11.2222322 7.92089291,10.6196229 L7.92089291,10.6196229 Z M8.69291061,12.4338482 L7.81349653,12.4338482 L7.83358506,12.0120841 C7.56532591,12.34522 7.20728647,12.5045323 6.72098949,12.5045323 C6.14568486,12.5045323 5.75133154,12.0504688 5.75133154,11.3916868 C5.75133154,10.3996128 6.43727762,9.82196923 7.61492912,9.82196923 C7.73546031,9.82196923 7.88967842,9.83304775 8.04760518,9.85364444 C8.08051947,9.71882973 8.08917299,9.66156469 8.08917299,9.58854006 C8.08917299,9.31922271 7.90420397,9.21889186 7.40848083,9.21889186 C6.88880599,9.21265044 6.46076574,9.34325219 6.28460478,9.40145344 C6.29573073,9.33404609 6.43186916,8.48568085 6.43186916,8.48568085 C6.96081564,8.32902117 7.30973798,8.2698837 7.7023915,8.2698837 C8.61394723,8.2698837 9.09669009,8.68353392 9.09576293,9.46433577 C9.09761725,9.67357943 9.06331222,9.93244239 9.01000035,10.2713516 C8.91774764,10.8606978 8.71995287,12.1264581 8.69291061,12.4338482 L8.69291061,12.4338482 Z" id="a-3" fill="#FFFFFF"></path>
                        <path d="M5.21774925,12.4975107 L4.15630216,12.4975107 L4.76452108,8.64780178 L3.4066909,12.4975107 L2.68319472,12.4975107 L2.59372349,8.67011486 L1.95459914,12.4975107 L0.960989487,12.4975107 L1.79095488,7.48970599 L3.31752872,7.48970599 L3.36002369,10.5898201 L4.39010176,7.48970599 L6.03875206,7.48970599 L5.21774925,12.4975107" id="m-2" fill="#FFFFFF"></path>
                    </g>
                </g>
            </g>
        </g>
    </g>
</svg>