<?xml version="1.0" encoding="UTF-8" standalone="no"?>
<svg width="49px" height="31px" viewBox="0 0 49 31" version="1.1" xmlns="http://www.w3.org/2000/svg" xmlns:xlink="http://www.w3.org/1999/xlink">
    <!-- Generator: Sketch 3.6.1 (26313) - http://www.bohemiancoding.com/sketch -->
    <title>sodexo</title>
    <desc>Created with Sketch.</desc>
    <defs></defs>
    <g id="Checkout" stroke="none" stroke-width="1" fill="none" fill-rule="evenodd">
        <g id="pagamento" transform="translate(-621.000000, -706.000000)">
            <g transform="translate(442.000000, 230.000000)" id="sodexo">
                <g transform="translate(179.000000, 476.000000)">
                    <g id="card" stroke="#DDDDDD" fill="#FFFFFF">
                        <rect x="0.0250118828" y="0.189319616" width="48" height="29.8956027" rx="3"></rect>
                    </g>
                    <g id="Sodexo_logo" transform="translate(6.000000, 7.000000)">
                        <path d="M17.9999811,7.34155814 L17.5789583,9.37981395 C17.3936364,10.2062093 16.8801326,10.7577209 15.8311742,10.7577209 C14.6271212,10.7577209 14.309375,10.0338837 14.5735038,9.01527907 C14.9473864,7.57039535 16.1633144,7.13993023 17.9999811,7.34155814 L17.9999811,7.34155814 Z M19.8960227,4.42737209 L18.6160417,4.50655814 L18.2112121,6.50225581 C17.7218182,6.48551163 17.567803,6.47051163 16.9924053,6.47051163 C15.1910038,6.47051163 13.6188258,7.20446512 13.2035606,8.92632558 C12.8293182,10.4786512 13.7390152,11.6835349 15.7228598,11.6835349 C17.7549242,11.6835349 18.639072,10.6558605 18.9568182,9.21062791 L19.8960227,4.42737209 L19.8960227,4.42737209 Z" id="path5955" fill="#2B3797"></path>
                        <path d="M6.0094697,7.42852186 C4.1325,7.26282419 2.51785985,7.4138707 2.49159091,8.0316614 C2.45092803,8.95921953 5.58520833,8.14991721 5.52475379,9.85642884 C5.43659091,12.3635219 1.07846591,11.786894 0,11.4677079 L0.195757576,10.7236381 C2.0550947,11.0096847 4.01662879,11.0334056 4.05981061,10.0392195 C4.10587121,8.98259163 0.958636364,9.93247535 1.0324053,8.22142884 C1.08746212,6.94677767 3.05439394,6.25956837 6.27395833,6.71794047 L6.0094697,7.42852186 L6.0094697,7.42852186 Z" id="path5959" fill="#2B3797"></path>
                        <path d="M11.0704162,9.13398977 C10.7994503,10.1805014 9.94337076,10.8377107 8.92392,10.8377107 C7.85804879,10.8377107 7.37837076,10.2387572 7.66409045,9.13398977 C7.93541621,8.08747814 8.80157152,7.38492 9.82066242,7.38492 C10.8390336,7.38492 11.3413821,8.08747814 11.0704162,9.13398977 M9.98475333,6.52817581 C8.11821924,6.52817581 6.61765106,7.57503628 6.24880636,9.13398977 C5.87888212,10.6939898 6.88393894,11.7405014 8.74975333,11.7405014 C10.6155677,11.7405014 12.1164958,10.6939898 12.4857003,9.13398977 C12.8556245,7.57503628 11.8509276,6.52817581 9.98475333,6.52817581" id="path5963" fill="#2B3797"></path>
                        <path d="M31.5512273,11.714026 L29.9286705,11.714026 C28.9448447,10.8171656 27.0624773,8.75658419 25.6767008,6.57600279 L26.8674394,6.57600279 C28.1834053,8.33623535 31.5512273,11.714026 31.5512273,11.714026" id="path5967" fill="#2B3797"></path>
                        <path d="M33.2515833,1.50872093 L33.9979091,0 L34.2109394,1.53383721 L35.7330985,1.01755814 L34.6693864,2.33965116 L35.8230606,3.20616279 L34.2832689,3.32162791 L34.1983447,4.91651163 L33.3422652,3.7377907 L32.083875,4.86244186 L32.5556364,3.27767442 L31.0716212,3.08267442 L32.516053,2.28488372 L31.9233826,0.919883721 L33.2515833,1.50872093 L33.2515833,1.50872093 Z" id="path5971" fill="#2B3797"></path>
                        <path d="M36.4156591,9.14979349 C36.140375,10.2127005 35.2709811,10.8803749 34.235697,10.8803749 C33.1532727,10.8803749 32.6653182,10.2720028 32.9560758,9.14979349 C33.2313598,8.08688651 34.1108295,7.37316558 35.1457538,7.37316558 C36.1813977,7.37316558 36.691303,8.08688651 36.4156591,9.14979349 M35.3127235,6.50211907 C33.4174015,6.50211907 31.8934432,7.56572372 31.5177614,9.14979349 C31.1424394,10.7342121 32.1633295,11.7974679 34.0586515,11.7974679 C35.9543333,11.7974679 37.4786515,10.7342121 37.8536136,9.14979349 C38.2292955,7.56572372 37.2084053,6.50211907 35.3127235,6.50211907" id="path5975" fill="#2B3797"></path>
                        <path d="M24.4470639,11.2760567 C27.5115336,9.62605674 30.1733329,7.09035907 32.0614579,4.89826605 C30.7041094,9.01663814 27.4366852,11.2331498 24.4470639,11.2760567" id="path5979" fill="#ED1C24"></path>
                        <path d="M23.2341212,7.29247535 C23.8210341,7.29247535 24.1405795,7.49898698 24.1405795,7.89352186 C24.1405795,8.94073116 22.0343864,8.8716614 21.1056174,8.68817302 C21.4323598,7.90433581 22.1700492,7.29247535 23.2341212,7.29247535 M25.402928,7.83631256 C25.402928,7.07689395 24.7785909,6.51875442 23.3618674,6.51875442 C21.0642348,6.51875442 19.5712235,7.96468465 19.5712235,9.75456837 C19.5712235,10.9106149 20.5611667,11.8713126 22.3694053,11.8713126 C23.6152008,11.8713126 24.4471705,11.2761963 24.4471705,11.2761963 C22.861678,11.4408474 20.9145379,11.2761963 20.9145379,9.63177767 C20.9145379,9.56654512 20.9181364,9.50131256 20.9235341,9.43608 C23.0869432,9.87142884 25.402928,9.34468465 25.402928,7.83631256" id="path5983" fill="#2B3797"></path>
                    </g>
                </g>
            </g>
        </g>
    </g>
</svg>