<?xml version="1.0" encoding="UTF-8" standalone="no"?>
<svg width="49px" height="31px" viewBox="0 0 49 31" version="1.1" xmlns="http://www.w3.org/2000/svg" xmlns:xlink="http://www.w3.org/1999/xlink">
    <!-- Generator: Sketch 3.6.1 (26313) - http://www.bohemiancoding.com/sketch -->
    <title>ticket</title>
    <desc>Created with Sketch.</desc>
    <defs>
        <linearGradient x1="37.9858193%" y1="50%" x2="68.1230305%" y2="22.2521648%" id="linearGradient-1">
            <stop stop-color="#E2201A" offset="0%"></stop>
            <stop stop-color="#F9C8B2" offset="100%"></stop>
        </linearGradient>
    </defs>
    <g id="Checkout" stroke="none" stroke-width="1" fill="none" fill-rule="evenodd">
        <g id="pagamento" transform="translate(-737.000000, -706.000000)">
            <g transform="translate(442.000000, 230.000000)" id="ticket">
                <g transform="translate(295.000000, 476.000000)">
                    <g id="card" stroke="#DDDDDD" fill="#FFFFFF">
                        <rect x="0.0250118828" y="0.189319616" width="48" height="29.8956027" rx="3"></rect>
                    </g>
                    <g id="Group" transform="translate(5.000000, 9.000000)">
                        <path d="M16.6159232,1.40736714 L15.6607936,5.5780568 L14.5223279,5.5780568 C14.5223279,5.5780568 15.3398317,1.94793509 15.3932979,1.70858824 C15.446929,1.46907505 15.5842248,1.40736714 15.699078,1.40736714 L16.6159232,1.40736714" id="Fill-2" fill="#12204C"></path>
                        <path d="M19.9780191,4.80562677 L19.7717454,5.5780568 L18.3506023,5.5780568 C17.8996055,5.5780568 17.3495974,5.39276673 17.066755,5.02185396 C16.7840775,4.65127383 16.6083323,3.96383773 17.0132888,2.87488438 C17.4182453,1.78576471 18.3733749,1.42266937 19.236919,1.42266937 L20.7805062,1.42266937 C20.7805062,1.42266937 20.7422218,1.70077079 20.6506363,1.88622718 C20.5588858,2.07151724 20.4366068,2.23385396 20.1768669,2.23385396 L19.2903852,2.23385396 C19.0077077,2.23385396 18.4421878,2.28009331 18.2359142,2.91330629 C18.0296405,3.54685193 17.9685835,4.04118053 18.0449872,4.31911562 C18.121226,4.59721704 18.3496122,4.79797566 18.679155,4.79797566 C19.0085328,4.79797566 19.9780191,4.80562677 19.9780191,4.80562677" id="Fill-4" fill="#12204C"></path>
                        <path d="M26.3355388,3.94071805 L28.0626271,3.94071805 C29.0672624,3.94071805 29.4770044,3.42193915 29.4913611,2.43461258 C29.4989519,1.90934686 28.9687461,1.37643002 28.0319336,1.37643002 C27.095121,1.37643002 26.4807555,1.41501826 25.8389968,2.07151724 C25.1970732,2.72801623 25.1741355,3.69355375 25.1741355,4.118357 C25.1741355,4.54316024 25.3726533,5.56258824 26.7711888,5.56258824 L28.5591691,5.56258824 L28.7578519,4.79015822 L26.8551835,4.79015822 C26.6093053,4.79015822 26.4457715,4.63896552 26.3741533,4.44818661 C26.2875183,4.21815416 26.3355388,3.94071805 26.3355388,3.94071805 L26.3355388,3.94071805 Z M26.4578179,3.17610548 L27.7421603,3.17610548 C28.2784719,3.17610548 28.3299578,2.82082759 28.3299578,2.60443408 C28.3299578,2.3882069 28.2995943,2.11010548 27.6116303,2.11010548 C26.9007287,2.11010548 26.511449,2.65083976 26.4578179,3.17610548 L26.4578179,3.17610548 Z" id="Fill-5" fill="#12204C"></path>
                        <path d="M31.6767069,0.519172414 L30.5380762,0.519172414 C30.5380762,0.519172414 29.865789,3.19157404 29.7207374,3.98712373 C29.5560485,4.88929006 29.9042385,5.57040568 30.8819757,5.57040568 L31.9671402,5.57040568 L32.1199478,4.82109533 L31.2719154,4.82109533 C31.0044197,4.82109533 30.7676176,4.58939959 30.8438563,4.15694523 C30.8818107,3.94288032 31.0861041,3.05019473 31.2828067,2.20291684 L32.35675,2.20291684 C32.5937172,2.20291684 32.662365,2.13339148 32.7082403,1.94793509 C32.7542806,1.76264503 32.7999908,1.43048682 32.7999908,1.43048682 L31.4628424,1.43048682 C31.5854514,0.906551724 31.6767069,0.519172414 31.6767069,0.519172414" id="Fill-6" fill="#12204C"></path>
                        <path d="M22.2872942,2.81700203 C22.5353176,2.78124138 22.9422544,2.67911562 23.34028,2.3882069 C23.9744478,1.92481542 24.1196645,1.43830426 24.1196645,1.43830426 L25.4797506,1.43830426 C25.4797506,1.43830426 25.2886587,2.07916836 24.5398027,2.65083976 C23.7911118,3.22234483 23.2255919,3.31498986 23.2255919,3.31498986 C23.2255919,3.31498986 23.7681742,3.85572414 24.1120736,4.34240162 C24.4558081,4.82891278 24.9449242,5.5780568 24.9449242,5.5780568 L23.5006784,5.5780568 C23.5006784,5.5780568 23.2485295,5.11466531 22.8054537,4.54316024 C22.4579238,4.09507099 22.2843238,3.90312779 22.0745848,3.75193509 L21.6592321,5.5780568 L20.5206014,5.5780568 C20.5206014,5.5780568 21.6514762,0.542292089 21.7051074,0.302945233 C21.7585735,0.0634320487 21.8958692,0.00155780933 22.0107224,0.00155780933 L22.9275677,0.00155780933 L22.2872942,2.81700203 Z" id="Fill-10" fill="#12204C"></path>
                        <path d="M10.5871212,0.00937525355 L10.3579099,0.858981744 C10.3579099,0.858981744 11.1963711,0.857484787 12.1470453,0.855655172 L11.0836632,5.58587424 L12.3140444,5.5780568 L13.3851824,0.853492901 C14.1414642,0.852162272 14.758635,0.851330629 14.8203521,0.851330629 C14.9885064,0.851330629 15.0954387,0.83569574 15.1413139,0.658056795 C15.1870242,0.480584178 15.263428,0.00937525355 15.263428,0.00937525355 L10.5871212,0.00937525355" id="Fill-11" fill="#12204C"></path>
                        <path d="M15.5997366,0.858981744 L16.5778038,0.858981744 C16.7152646,0.858981744 16.7687307,0.789290061 16.8070151,0.65040568 C16.8452995,0.51135497 16.9522318,0.032494929 16.9522318,0.032494929 L16.0350565,0.032494929 C15.8741631,0.032494929 15.7754817,0.0710831643 15.7449532,0.194665314 C15.7144247,0.318247465 15.5997366,0.858981744 15.5997366,0.858981744" id="Fill-3" fill="#12204C"></path>
                        <path d="M14.7188639,8.90375479 L15.807828,8.90375479 C16.4412178,8.90375479 16.6996125,8.57544061 16.708774,7.95021073 C16.7135629,7.61768199 16.3791697,7.28030651 15.788464,7.28030651 C15.1977582,7.28030651 14.8102702,7.30475096 14.4057086,7.72030651 C14.0009388,8.13586207 13.9865719,8.74718391 13.9865719,9.01628352 C13.9865719,9.28538314 14.1117091,9.93063218 14.9934994,9.93063218 L16.1209832,9.93063218 L16.2463286,9.4417433 L15.0465942,9.4417433 C14.891474,9.4417433 14.7884076,9.34586207 14.743225,9.22511494 C14.6886727,9.07929119 14.7188639,8.90375479 14.7188639,8.90375479 L14.7188639,8.90375479 Z M14.7959034,8.41971264 L15.6058595,8.41971264 C15.9440005,8.41971264 15.976482,8.19465517 15.976482,8.05789272 C15.976482,7.92091954 15.9573263,7.74475096 15.5234064,7.74475096 C15.0751196,7.74475096 14.8296342,8.08718391 14.7959034,8.41971264 L14.7959034,8.41971264 Z" id="Fill-7" fill="#12204C"></path>
                        <path d="M20.7625105,6.73747126 L20.0443772,6.73747126 C20.0443772,6.73747126 19.6206598,8.42940613 19.5290452,8.93304598 C19.425146,9.5043295 19.6448127,9.93547893 20.2615453,9.93547893 L20.9455314,9.93547893 L21.0419349,9.46113027 L20.507239,9.46113027 C20.3385849,9.46113027 20.1890865,9.3144636 20.2373924,9.04072797 C20.2611289,8.90522989 20.3900139,8.33984674 20.51411,7.80333333 L21.1914332,7.80333333 C21.3407233,7.80333333 21.384032,7.75950192 21.4129739,7.64212644 C21.4419158,7.52475096 21.4708577,7.31444444 21.4708577,7.31444444 L20.6275872,7.31444444 C20.7048349,6.98275862 20.7625105,6.73747126 20.7625105,6.73747126" id="Fill-8" fill="#12204C"></path>
                        <path d="M37.2643766,6.73747126 L36.5462433,6.73747126 C36.5462433,6.73747126 36.1223177,8.42940613 36.0307032,8.93304598 C35.9270121,9.5043295 36.1466789,9.93547893 36.7632033,9.93547893 L37.4473976,9.93547893 L37.5438011,9.46113027 L37.0088969,9.46113027 C36.8402428,9.46113027 36.6909527,9.3144636 36.7390504,9.04072797 C36.7629951,8.90522989 36.8918801,8.33984674 37.015768,7.80333333 L37.6930912,7.80333333 C37.8423813,7.80333333 37.88569,7.75950192 37.9146319,7.64212644 C37.9435738,7.52475096 37.9725156,7.31444444 37.9725156,7.31444444 L37.1294534,7.31444444 C37.2067011,6.98275862 37.2643766,6.73747126 37.2643766,6.73747126" id="Fill-9" fill="#12204C"></path>
                        <path d="M12.90552,8.36176245 C12.921969,8.3598659 13.150589,8.34574713 13.3873294,8.14492337 C13.5547342,8.00289272 13.7313004,7.74475096 13.7552452,7.50494253 C13.8133371,6.92480843 13.5541095,6.45003831 12.9758967,6.45003831 C12.3976838,6.45003831 11.1696321,6.43676245 11.1696321,6.43676245 L10.3382299,9.9443295 L11.1371506,9.9443295 L11.4815381,8.47408046 L12.0986872,8.48082375 L12.6833547,9.9510728 L13.5924211,9.93779693 C13.5924211,9.93779693 12.9107254,8.37335249 12.90552,8.36176245 L12.90552,8.36176245 Z M11.5789827,7.90068966 L11.7867812,7.02363985 L12.5555107,7.02363985 C12.8141137,7.02363985 12.9211361,7.1483908 12.9021886,7.38672414 C12.883241,7.62505747 12.7129212,7.88193487 12.3729062,7.90068966 C12.0324748,7.91965517 11.5789827,7.90068966 11.5789827,7.90068966 L11.5789827,7.90068966 Z" id="Fill-12" fill="#12204C"></path>
                        <path d="M19.4393046,7.32687739 C19.4393046,7.32687739 19.447425,7.84126437 18.9781085,7.84126437 L18.1011072,7.84126437 C17.8866458,7.84126437 17.7111206,8.06400383 18.0492617,8.21699234 C18.317859,8.33858238 18.76448,8.5233908 18.9522898,8.70482759 C19.1515515,8.89764368 19.2054792,9.31130268 18.9131454,9.61475096 C18.6208117,9.91798851 18.3555459,9.93126437 18.0361441,9.93126437 L16.5549031,9.93126437 C16.5549031,9.93126437 16.5736425,9.40360153 16.9902805,9.40360153 L18.0686257,9.40360153 C18.3357654,9.40360153 18.3565869,9.16421456 18.2116693,9.06749042 C18.0665435,8.97076628 17.3519499,8.70693487 17.1202067,8.48061303 C16.8884634,8.25450192 17.0812705,7.67626437 17.4321126,7.49166667 C17.7829548,7.30706897 18.1206794,7.31381226 18.2570602,7.31381226 C18.393441,7.31381226 19.4393046,7.32687739 19.4393046,7.32687739" id="Fill-13" fill="#12204C"></path>
                        <path d="M21.9664092,7.31381226 L21.8820821,7.81492337 L22.9473097,7.81492337 C23.2007073,7.81492337 23.3046066,7.92028736 23.2850344,8.05220307 C23.2656704,8.18411877 23.2396435,8.32235632 23.2396435,8.32235632 C23.2396435,8.32235632 22.4871547,8.32888889 22.1937799,8.32888889 C21.9001968,8.32888889 21.4662769,8.57291188 21.4077685,8.94885057 C21.3492601,9.32457854 21.4337954,9.61475096 21.706557,9.77954023 C21.9795267,9.9443295 22.2835205,9.96413793 22.6874575,9.96413793 C23.0916027,9.96413793 23.6425394,9.86530651 23.6425394,9.86530651 C23.6425394,9.86530651 23.9021834,8.50716475 23.9867187,8.10488506 C24.0710457,7.70281609 23.8767812,7.30706897 23.2656704,7.30706897 C22.6545595,7.30706897 21.9684913,7.30095785 21.9664092,7.31381226 L21.9664092,7.31381226 Z M23.116172,8.7908046 L22.9929088,9.39727969 C22.9929088,9.39727969 22.7655381,9.43668582 22.5964676,9.43668582 C22.4273971,9.43668582 22.1612984,9.37114943 22.1612984,9.08729885 C22.1612984,8.80344828 22.4600868,8.79059387 22.6289491,8.79059387 C22.7980196,8.79059387 23.116172,8.7908046 23.116172,8.7908046 L23.116172,8.7908046 Z" id="Fill-14" fill="#12204C"></path>
                        <path d="M30.2435774,7.31381226 L30.1592503,7.81492337 L31.2246861,7.81492337 C31.4780837,7.81492337 31.5817747,7.92028736 31.5624107,8.05220307 C31.5430468,8.18411877 31.5168117,8.32235632 31.5168117,8.32235632 C31.5168117,8.32235632 30.7645311,8.32888889 30.4709481,8.32888889 C30.1775732,8.32888889 29.7434451,8.57291188 29.6849367,8.94885057 C29.6266365,9.32457854 29.7109636,9.61475096 29.9839334,9.77954023 C30.2566949,9.9443295 30.5606887,9.96413793 30.9646257,9.96413793 C31.3687709,9.96413793 31.9197076,9.86530651 31.9197076,9.86530651 C31.9197076,9.86530651 32.1795598,8.50716475 32.2638869,8.10488506 C32.3484221,7.70281609 32.1539494,7.30706897 31.5430468,7.30706897 C30.9317277,7.30706897 30.2458677,7.30095785 30.2435774,7.31381226 L30.2435774,7.31381226 Z M31.3935484,8.7908046 L31.270077,9.39727969 C31.270077,9.39727969 31.0427063,9.43668582 30.873844,9.43668582 C30.7047734,9.43668582 30.4386748,9.37114943 30.4386748,9.08729885 C30.4386748,8.80344828 30.737255,8.79059387 30.9063255,8.79059387 C31.0751878,8.79059387 31.3935484,8.7908046 31.3935484,8.7908046 L31.3935484,8.7908046 Z" id="Fill-15" fill="#12204C"></path>
                        <path d="M24.7729383,7.3359387 L25.5362542,7.3359387 C25.5362542,7.3359387 25.2164361,8.59482759 25.1639659,8.8902682 C25.1114957,9.18549808 25.1162847,9.44722222 25.4979427,9.44722222 C25.8798088,9.44722222 26.2329414,9.42277778 26.2329414,9.42277778 L26.7051728,7.3359387 L27.444544,7.3359387 L26.8673723,9.88279693 C26.8673723,9.88279693 26.1511129,9.99911877 25.5362542,9.99911877 C24.9211873,9.99911877 24.2671842,9.8343295 24.3673356,9.19034483 C24.467487,8.54636015 24.7729383,7.3359387 24.7729383,7.3359387" id="Fill-16" fill="#12204C"></path>
                        <path d="M29.6507895,7.90111111 C29.6072725,7.89858238 29.5587585,7.89752874 29.5054554,7.89752874 C29.1235893,7.89752874 28.7704567,7.93630268 28.7704567,7.93630268 L28.3078032,9.9458046 L27.5682237,9.9458046 L28.1456037,7.42802682 C28.1456037,7.42802682 28.8618631,7.28747126 29.4767218,7.28747126 C29.5702103,7.28747126 29.6643234,7.28810345 29.7567709,7.29105364 L29.6507895,7.90111111" id="Fill-17" fill="#12204C"></path>
                        <path d="M35.2026324,9.92431034 L34.4393165,9.93885057 C34.4393165,9.93885057 34.7358145,8.67385057 34.7826629,8.37756705 C34.8297195,8.08128352 34.8203498,7.81998084 34.4386918,7.82714559 C34.0570338,7.83431034 33.7043177,7.86528736 33.7043177,7.86528736 L33.270606,9.96076628 L32.5310266,9.97467433 L33.0615583,7.41727969 C33.0615583,7.41727969 33.7755273,7.28747126 34.3901777,7.27588123 C35.0050364,7.26429119 35.6621627,7.41664751 35.5738796,8.06252874 C35.4853883,8.70819923 35.2026324,9.92431034 35.2026324,9.92431034" id="Fill-18" fill="#12204C"></path>
                        <path d="M8.17721519,4.10344828 C8.17721519,6.363547 6.34053236,8.20689655 4.08860759,8.20689655 C1.83668283,8.20689655 0,6.363547 0,4.10344828 C0,1.84344291 1.83668283,0 4.08860759,0 C6.34053236,0 8.17721519,1.84344291 8.17721519,4.10344828 Z" id="Fill-21" fill="url(#linearGradient-1)"></path>
                        <path d="M4.15732369,8.81708196 C5.72799391,8.81708196 7.00904159,9.08279042 7.00904159,9.40854098 C7.00904159,9.73430499 5.72799391,10 4.15732369,10 C2.58665347,10 1.30560579,9.73430499 1.30560579,9.40854098 C1.30560579,9.08279042 2.58665347,8.81708196 4.15732369,8.81708196" id="Fill-21-Copy" fill-opacity="0.349694293" fill="#12204C"></path>
                    </g>
                </g>
            </g>
        </g>
    </g>
</svg>