<?xml version="1.0" encoding="UTF-8" standalone="no"?>
<svg width="48px" height="31px" viewBox="0 0 48 31" version="1.1" xmlns="http://www.w3.org/2000/svg" xmlns:xlink="http://www.w3.org/1999/xlink">
    <!-- Generator: Sketch 3.6.1 (26313) - http://www.bohemiancoding.com/sketch -->
    <title>visa-electron</title>
    <desc>Created with Sketch.</desc>
    <defs>
        <rect id="path-1" x="0.023480543" y="0.177105447" width="45.0612245" height="27.9668541" rx="3"></rect>
    </defs>
    <g id="Checkout" stroke="none" stroke-width="1" fill="none" fill-rule="evenodd">
        <g id="pagamento" transform="translate(-506.000000, -706.000000)">
            <g transform="translate(442.000000, 230.000000)" id="visa-electron">
                <g transform="translate(65.000000, 477.000000)">
                    <g id="card">
                        <g id="visa-electron">
                            <mask id="mask-2" fill="white">
                                <use xlink:href="#path-1"></use>
                            </mask>
                            <use id="Mask" stroke="#DDDDDD" fill="#FFFFFF" xlink:href="#path-1"></use>
                            <g mask="url(#mask-2)">
                                <path d="M0.0816732612,0.17503683 L45.9090952,0.17503683 L45.9090952,4.94335002 L0.0816732612,4.94335002 L0.0816732612,0.17503683 Z" id="top-line" fill="#0066B2"></path>
                                <path d="M0.0816732612,24.0166028 L45.9090952,24.0166028 L45.9090952,28.784916 L0.0816732612,28.784916 L0.0816732612,24.0166028 Z" id="bottom-line" fill="#F9A533"></path>
                                <g id="logo" transform="translate(6.145318, 7.748509)">
                                    <path d="M29.8877348,12.3726723 L30.4866487,12.3726723 L30.4866487,12.5612041 C30.6242793,12.4273246 30.8344051,12.3105009 31.0480269,12.3105009 C31.4162072,12.3105009 31.6160291,12.5129708 31.6160291,12.986501 C31.6160291,13.3402731 31.6123492,13.7208212 31.6092212,14.1021029 L31.0099393,14.1021029 C31.0132513,13.7690545 31.0169312,13.432705 31.0169312,13.0759985 C31.0169312,12.9351499 30.9790276,12.8252953 30.7999975,12.8252953 C30.7035824,12.8252953 30.5657678,12.9078238 30.4866487,12.9830164 L30.4835207,14.1021029 L29.8737509,14.1021029 L29.8877348,12.3726723" id="n" fill="#045EA0"></path>
                                    <path d="M28.591284,12.3105009 C29.2315975,12.3105009 29.5620581,12.7154407 29.5620581,13.2370208 C29.5620581,13.7586009 29.2315975,14.1635407 28.591284,14.1635407 C27.9507866,14.1635407 27.6201419,13.7586009 27.6201419,13.2370208 C27.6201419,12.7154407 27.9507866,12.3105009 28.591284,12.3105009 L28.591284,12.3105009 Z M28.591284,13.7107344 C28.8768491,13.7107344 28.9629602,13.4636991 28.9629602,13.2370208 C28.9629602,13.0107093 28.8768491,12.7633072 28.591284,12.7633072 C28.3053509,12.7633072 28.2194238,13.0107093 28.2194238,13.2370208 C28.2194238,13.4636991 28.3053509,13.7107344 28.591284,13.7107344 L28.591284,13.7107344 Z" id="o" fill="#045EA0"></path>
                                    <path d="M26.2631558,12.3726723 L26.8622537,12.3726723 L26.8622537,12.6158563 L26.8692456,12.6158563 C26.9586687,12.4685888 27.0755075,12.3242556 27.3099211,12.3242556 C27.3752404,12.3242556 27.4438717,12.3312247 27.5060631,12.3449795 L27.4267599,12.9351499 C27.3682485,12.9177272 27.3029292,12.9008547 27.2133221,12.9008547 C27.0136841,12.9008547 26.8587577,13.0688461 26.8587577,13.1033246 L26.8482698,14.1021029 L26.2491719,14.1021029 L26.2631558,12.3726723" id="r" fill="#045EA0"></path>
                                    <path d="M24.6310925,12.3726723 L24.9017537,12.3726723 L24.8995457,11.7856196 L25.4780358,11.7856196 L25.4642359,12.3726723 L25.9564309,12.3726723 L25.946311,12.8047549 L25.4539321,12.8047549 C25.4539321,13.0450045 25.4366362,13.2988255 25.4366362,13.4462764 C25.4366362,13.5975786 25.4747238,13.6696535 25.6088585,13.6696535 C25.6916576,13.6696535 25.7602889,13.6283893 25.8292882,13.587125 L25.9599269,13.9922483 C25.7843927,14.0984349 25.5709549,14.1635407 25.3678209,14.1635407 C24.8824339,14.1635407 24.8583301,13.8583687 24.8583301,13.4603979 C24.8583301,13.2474744 24.875442,13.0347343 24.875442,12.8047549 L24.6174766,12.8047549 L24.6310925,12.3726723" id="t" fill="#045EA0"></path>
                                    <path d="M24.4095587,13.9852792 C24.2443284,14.0881647 23.9723792,14.1635407 23.7727412,14.1635407 C23.2218508,14.1635407 22.8260709,13.8480985 22.8260709,13.2784685 C22.8260709,12.6949003 23.2183549,12.3105009 23.8106448,12.3105009 C24.0170907,12.3105009 24.2651202,12.3757901 24.3992548,12.4616197 L24.2064248,12.8526214 C24.1168177,12.8148417 24.0204027,12.7840311 23.9239877,12.7840311 C23.6246227,12.7840311 23.4249848,12.9626594 23.4249848,13.2474744 C23.4249848,13.4946931 23.6176308,13.6900106 23.8726522,13.6900106 C23.986179,13.6900106 24.0997059,13.6388429 24.1961209,13.5904262 L24.4095587,13.9852792" id="c" fill="#045EA0"></path>
                                    <path d="M22.4952423,13.9062352 C22.2922923,14.0780779 21.9824395,14.1635407 21.7068103,14.1635407 C21.0769848,14.1635407 20.7910517,13.7177035 20.7910517,13.2749839 C20.7910517,12.7532204 21.1835197,12.3105009 21.7239221,12.3105009 C22.3853954,12.3105009 22.5918413,12.7774288 22.5918413,13.3709004 L21.3901496,13.3709004 C21.3901496,13.5047799 21.4762607,13.7312748 21.8069053,13.7312748 C22.0168472,13.7312748 22.13387,13.6696535 22.2956043,13.5597989 L22.4952423,13.9062352 L22.4952423,13.9062352 Z M22.0547508,13.0211629 C22.0547508,12.8425346 21.9686396,12.6813289 21.7690017,12.6813289 C21.5794836,12.6813289 21.4350451,12.8495037 21.3971415,13.0211629 L22.0547508,13.0211629 L22.0547508,13.0211629 Z" id="e" fill="#045EA0"></path>
                                    <path d="M19.8355494,11.5281307 L20.4346473,11.5281307 L20.4368553,14.1021029 L19.8377574,14.1021029 L19.8355494,11.5281307" id="l" fill="#045EA0"></path>
                                    <path d="M17.7764265,11.7271161 L19.4224736,11.7271161 L19.4224736,12.2215535 L18.3998121,12.2215535 L18.3928202,12.6778444 L19.4121698,12.6778444 L19.4121698,13.1513746 L18.3893242,13.1513746 L18.3931882,13.6076655 L19.4016819,13.6076655 L19.4016819,14.1021029 L17.7771625,14.1021029 L17.7764265,11.7271161" id="e" fill="#045EA0"></path>
                                    <g id="registered" transform="translate(31.990418, 8.929125)" fill="#0161AB">
                                        <path d="M0.084572752,0.59376503 C0.084572752,0.298711897 0.324895945,0.0595855752 0.621163225,0.0595855752 C0.917955802,0.0595855752 1.1577537,0.298711897 1.1577537,0.59376503 C1.1577537,0.888556823 0.917955802,1.12794449 0.621163225,1.12794449 C0.324895945,1.12794449 0.084572752,0.888556823 0.084572752,0.59376503 L0.084572752,0.59376503 Z M0.621163225,0.999365086 C0.847040761,0.999365086 1.02931868,0.817733618 1.02931868,0.59376503 C1.02931868,0.369012422 0.847040761,0.187903634 0.621163225,0.187903634 C0.396336282,0.187903634 0.213795715,0.369012422 0.213795715,0.59376503 C0.213795715,0.817733618 0.396336282,0.999365086 0.621163225,0.999365086 L0.621163225,0.999365086 Z M0.548934943,0.827925887 L0.439147954,0.827925887 L0.439147954,0.358820152 L0.638235364,0.358820152 C0.679733796,0.358820152 0.721757523,0.359342833 0.758528285,0.382340774 C0.796612288,0.408997479 0.818149449,0.45316398 0.818149449,0.499682543 C0.818149449,0.553257293 0.787419598,0.602911939 0.736991125,0.621205756 L0.823139766,0.827925887 L0.701008308,0.827925887 L0.629567971,0.642112975 L0.548934943,0.642112975 L0.548934943,0.827925887 L0.548934943,0.827925887 Z M0.548934943,0.561881521 L0.609344052,0.561881521 C0.632194454,0.561881521 0.656620745,0.563972243 0.676582016,0.553257293 C0.694704749,0.541496982 0.704160087,0.519544401 0.704160087,0.498637182 C0.704160087,0.481388726 0.693128859,0.460481507 0.677632609,0.451334598 C0.658196635,0.440096968 0.627729433,0.44244903 0.607242865,0.44244903 L0.548934943,0.44244903 L0.548934943,0.561881521 L0.548934943,0.561881521 Z"></path>
                                    </g>
                                    <path d="M29.4262021,10.0904975 L31.8079556,10.0904975 L29.7314357,0.2341173 L27.6464488,0.2341173 C26.6833331,0.2341173 26.4483752,0.968299102 26.4483752,0.968299102 L22.5802483,10.0904975 L25.2837459,10.0904975 L25.8243608,8.62674088 L29.1222385,8.62674088 L29.4262021,10.0904975 Z M26.5719926,6.6042857 L27.9347485,2.91494885 L28.7018544,6.6042857 L26.5719926,6.6042857 Z" id="a" fill="#0066B2"></path>
                                    <path d="M22.7826084,2.6041885 L23.1530375,0.487500067 C23.1530375,0.487500067 22.0104224,0.0577963997 20.819969,0.0577963997 C19.532569,0.0577963997 16.4755761,0.614400858 16.4755761,3.3207801 C16.4755761,5.86759101 20.0638702,5.89942091 20.0638702,7.23585795 C20.0638702,8.57313262 16.8455819,8.33440836 15.7829794,7.49091598 L15.3977331,9.70351293 C15.3977331,9.70351293 16.5555888,10.2605362 18.3260284,10.2605362 C20.0956213,10.2605362 22.7669445,9.35338402 22.7669445,6.88614785 C22.7669445,4.32342199 19.146476,4.08427891 19.146476,2.97023237 C19.146476,1.85576701 21.6730144,1.99900156 22.7826084,2.6041885" id="s" fill="#0066B2"></path>
                                    <path d="M13.7991726,10.0904975 L11.205322,10.0904975 L12.8263199,0.2341173 L15.4210172,0.2341173 L13.7991726,10.0904975" id="i" fill="#0066B2"></path>
                                    <path d="M2.10991077,0.2341173 L4.15404459,0.2341173 C5.27930247,0.2341173 5.38429267,1.12158521 5.38429267,1.12158521 L6.2572354,5.55389896 L6.2572354,5.55348015 L6.55019193,7.01346746 L9.02296517,0.2341173 L11.8149425,0.2341173 L7.68772689,10.0904975 L4.9850759,10.0904975 L2.73202005,1.52741645 C1.26850745,0.657957565 0.0183620251,0.400805467 0.0179386775,0.400805467 L0.0657769547,0.2341173 L2.10991077,0.2341173 L4.15404459,0.2341173 C5.27930247,0.2341173 5.38429267,1.12158521 5.38429267,1.12158521 L6.2572354,5.55389896 C6.2572354,5.55389896 5.67047564,3.75592835 3.86828497,2.31269362 C1.98354152,0.803705007 0.0183620251,0.400805467 0.0179386775,0.400805467 L0.0657769547,0.2341173 L2.10991077,0.2341173 Z" id="v" fill="#0066B2"></path>
                                    <path d="M6.2572354,5.55389896 L5.38429267,1.12158521 C5.38429267,1.12158521 5.27930247,0.2341173 4.15404459,0.2341173 L0.0657769547,0.2341173 L0.0179386775,0.400805467 C0.0183620251,0.400805467 1.98354152,0.803705007 3.86828497,2.31269362 C5.67047564,3.75592835 6.2572354,5.55389896 6.2572354,5.55389896" id="shape" fill="#F9A533"></path>
                                </g>
                            </g>
                        </g>
                    </g>
                </g>
            </g>
        </g>
    </g>
</svg>