<?xml version="1.0" encoding="UTF-8" standalone="no"?>
<svg width="49px" height="31px" viewBox="0 0 49 31" version="1.1" xmlns="http://www.w3.org/2000/svg" xmlns:xlink="http://www.w3.org/1999/xlink">
    <!-- Generator: Sketch 3.6.1 (26313) - http://www.bohemiancoding.com/sketch -->
    <title>visa</title>
    <desc>Created with Sketch.</desc>
    <defs></defs>
    <g id="Checkout" stroke="none" stroke-width="1" fill="none" fill-rule="evenodd">
        <g id="pagamento" transform="translate(-549.000000, -376.000000)">
            <g transform="translate(442.000000, 230.000000)" id="visa">
                <g transform="translate(107.000000, 146.000000)">
                    <g id="card" fill="#0066B2">
                        <rect x="0.0182554693" y="0.13890274" width="48" height="30.0521739" rx="3"></rect>
                    </g>
                    <g id="logo" transform="translate(8.000000, 10.000000)">
                        <g id="registered" transform="translate(31.811223, 8.943188)" fill="#FFFFFF">
                            <path d="M0.0836180729,0.594700192 C0.0836180729,0.299182359 0.321228435,0.0596794207 0.614151374,0.0596794207 C0.90759368,0.0596794207 1.14468468,0.299182359 1.14468468,0.594700192 C1.14468468,0.889956274 0.90759368,1.12972096 0.614151374,1.12972096 C0.321228435,1.12972096 0.0836180729,0.889956274 0.0836180729,0.594700192 L0.0836180729,0.594700192 Z M0.614151374,1.00093906 C0.837479146,1.00093906 1.01769947,0.819021524 1.01769947,0.594700192 C1.01769947,0.369593605 0.837479146,0.188199577 0.614151374,0.188199577 C0.391862335,0.188199577 0.211382333,0.369593605 0.211382333,0.594700192 C0.211382333,0.819021524 0.391862335,1.00093906 0.614151374,1.00093906 L0.614151374,1.00093906 Z M0.542738424,0.829229846 L0.434190739,0.829229846 L0.434190739,0.359385283 L0.631030799,0.359385283 C0.672060785,0.359385283 0.713610138,0.359908787 0.749965822,0.38294295 C0.787619923,0.409641638 0.808913966,0.4538777 0.808913966,0.500469528 C0.808913966,0.554128656 0.778531002,0.603861507 0.728671778,0.622184136 L0.813847952,0.829229846 L0.693095145,0.829229846 L0.622461245,0.643124284 L0.542738424,0.643124284 L0.542738424,0.829229846 L0.542738424,0.829229846 Z M0.542738424,0.562766467 L0.602465618,0.562766467 C0.625058079,0.562766467 0.649208641,0.564860482 0.668944583,0.554128656 C0.686862742,0.542349823 0.696211346,0.520362668 0.696211346,0.499422521 C0.696211346,0.482146899 0.685304641,0.461206751 0.669983317,0.452045437 C0.650766741,0.440790107 0.62064346,0.443145874 0.600388151,0.443145874 L0.542738424,0.443145874 L0.542738424,0.562766467 L0.542738424,0.562766467 Z"></path>
                        </g>
                        <path d="M29.2759526,10.1063898 L31.6308203,10.1063898 L29.5777407,0.234486028 L27.5162897,0.234486028 C26.5640458,0.234486028 26.3317402,0.969824144 26.3317402,0.969824144 L22.5072777,10.1063898 L25.1802576,10.1063898 L25.7147699,8.64032774 L28.9754203,8.64032774 L29.2759526,10.1063898 Z M26.4539622,6.61468726 L27.801335,2.91953981 L28.5597815,6.61468726 L26.4539622,6.61468726 Z" id="a" fill="#FFFFFF"></path>
                        <path d="M22.7073535,2.60829002 L23.0736012,0.488267865 C23.0736012,0.488267865 21.9438842,0.0578874273 20.7668689,0.0578874273 C19.4940014,0.0578874273 16.4715166,0.615368521 16.4715166,3.32601023 C16.4715166,5.87683229 20.0193052,5.90871233 20.0193052,7.24725421 C20.0193052,8.58663505 16.8373457,8.34753481 15.7867382,7.50271395 L15.4058406,9.71879568 C15.4058406,9.71879568 16.5506261,10.2766962 18.3010805,10.2766962 C20.0506978,10.2766962 22.6918665,9.36811532 22.6918665,6.89699333 C22.6918665,4.33023125 19.1122667,4.09071153 19.1122667,2.97491039 C19.1122667,1.85868979 21.6102849,2.00214993 22.7073535,2.60829002" id="s" fill="#FFFFFF"></path>
                        <path d="M13.8253251,10.1063898 L11.2607545,10.1063898 L12.8634542,0.234486028 L15.4288619,0.234486028 L13.8253251,10.1063898" id="i" fill="#FFFFFF"></path>
                        <path d="M6.36852321,5.56259375 L6.36852321,5.56222671 L6.65817277,7.02451346 L9.10303271,0.234486028 L11.8634935,0.234486028 L7.78286694,10.1063898 L5.11072418,10.1063898 L2.8831014,1.52982208 C1.43610931,0.658993828 0.200075852,0.401436724 0.199657284,0.401436724 L0.24695555,0.234486028 L2.26801466,0.234486028 L0.24695555,0.234486028 L0.199657284,0.401436724 C0.200075852,0.401436724 2.14307189,0.804970819 4.00653987,2.31633604 C5.78782426,3.76138735 6.36815668,5.56150886 6.36852304,5.56264565 Z" id="v" fill="#FFFFFF"></path>
                        <path d="M6.36852321,5.56264619 L5.50543449,1.12335167 C5.50543449,1.12335167 5.40162945,0.234486028 4.28907376,0.234486028 L0.24695555,0.234486028 L0.199657284,0.401436724 C0.200075852,0.401436724 2.14307189,0.804970819 4.00653987,2.31633604 C5.78838695,3.76184383 6.36852321,5.56264619 6.36852321,5.56264619" id="shape" fill="#F9A533"></path>
                    </g>
                </g>
            </g>
        </g>
    </g>
</svg>