<?xml version="1.0" encoding="UTF-8" standalone="no"?>
<svg width="48px" height="30px" viewBox="0 0 48 30" version="1.1" xmlns="http://www.w3.org/2000/svg" xmlns:xlink="http://www.w3.org/1999/xlink">
    <!-- Generator: Sketch 3.6.1 (26313) - http://www.bohemiancoding.com/sketch -->
    <title>vr</title>
    <desc>Created with Sketch.</desc>
    <defs></defs>
    <g id="Checkout" stroke="none" stroke-width="1" fill="none" fill-rule="evenodd">
        <g id="pagamento" transform="translate(-679.000000, -706.000000)">
            <g transform="translate(442.000000, 230.000000)" id="vr">
                <g transform="translate(237.000000, 476.000000)">
                    <rect id="card" fill="#119046" x="0" y="0" width="48" height="29.8956027" rx="3"></rect>
                    <path d="M0,26.9996703 C0,28.6567066 1.33389258,30 3.00261497,30 L44.997385,30 C46.6556835,30 48,28.6513555 48,26.9996703 L48,20 L0,20 L0,26.9996703 Z" id="Fill-1" fill="#EB8B2D"></path>
                    <path d="M14.4364553,26.331986 L14.4364553,22.7291762 C14.7212573,22.6748978 15.039265,22.6474393 15.3898397,22.6474393 C15.8738755,22.6474393 16.2257273,22.7381162 16.4460338,22.9188314 C16.6663404,23.098908 16.7768129,23.3428416 16.7768129,23.6499936 C16.7768129,23.8664687 16.7155102,24.0561239 16.5916277,24.2195977 C16.4677452,24.3830715 16.29597,24.502484 16.0775792,24.5765581 C16.3413084,24.6793678 16.5201079,24.9264943 16.6139777,25.318576 C16.7621258,25.9162771 16.8598269,26.2540805 16.9064425,26.331986 L16.3866469,26.331986 C16.3361999,26.2470562 16.254463,25.9577842 16.1427133,25.4648084 C16.085242,25.208742 15.9990351,25.0267497 15.8853697,24.9201086 C15.7717043,24.814106 15.6101462,24.7604662 15.4006954,24.7604662 L14.9402867,24.7604662 L14.9402867,26.331986 L14.4364553,26.331986 L14.4364553,26.331986 Z M14.9402867,23.0759195 L14.9402867,24.3811558 L15.4441181,24.3811558 C15.6969917,24.3811558 15.8981411,24.3198531 16.0475664,24.1972478 C16.1976303,24.0746424 16.2729815,23.9098914 16.2729815,23.704272 C16.2729815,23.4858812 16.2001845,23.318576 16.0552292,23.204272 C15.9096354,23.0893295 15.7001845,23.0324968 15.4275153,23.0324968 C15.2161488,23.0324968 15.0539521,23.0471839 14.9402867,23.0759195 L14.9402867,23.0759195 Z M19.631219,25.1238123 L17.7301973,25.1238123 C17.7372216,25.4073372 17.8247056,25.6238123 17.9926494,25.7745147 C18.1605932,25.9252171 18.3783455,26.0012069 18.6452676,26.0012069 C18.9364553,26.0012069 19.1912446,25.9558685 19.4096354,25.8658301 L19.4958423,26.217682 C19.2378602,26.3332631 18.9326239,26.3913729 18.580772,26.3913729 C18.1720875,26.3913729 17.8470556,26.2700447 17.6056762,26.0280268 C17.3636584,25.7860089 17.2423301,25.4648084 17.2423301,25.0637867 C17.2423301,24.6634036 17.3591884,24.3268774 17.5909891,24.0561239 C17.8227899,23.7853704 18.1344119,23.6499936 18.5264936,23.6499936 C18.8872854,23.6499936 19.1644246,23.7700447 19.3579112,24.011424 C19.5513978,24.2521648 19.6478218,24.5471839 19.6478218,24.8958429 C19.6478218,24.9954598 19.6420747,25.0714496 19.631219,25.1238123 L19.631219,25.1238123 Z M17.7353059,24.7604662 L19.1599547,24.7604662 C19.1599547,24.5350511 19.1024834,24.3524202 18.9856252,24.2144891 C18.8694055,24.0765581 18.7033774,24.0075926 18.4881794,24.0075926 C18.2844757,24.0075926 18.1152548,24.0765581 17.9817937,24.2144891 C17.8483327,24.3524202 17.7659572,24.5350511 17.7353059,24.7604662 L17.7353059,24.7604662 Z M20.8017171,26.331986 L20.2978857,26.331986 L20.2978857,24.0944381 L19.929431,24.0944381 L19.929431,23.7093806 L20.2978857,23.7093806 L20.2978857,23.5906066 C20.2978857,23.2164049 20.383454,22.9271328 20.5545907,22.7215134 C20.7250888,22.5171711 20.9626367,22.415 21.2672344,22.415 C21.4211296,22.415 21.5603378,22.4399042 21.6848589,22.4903512 L21.6254719,22.8805172 C21.534795,22.8409259 21.4300696,22.8211303 21.3106571,22.8211303 C20.9677452,22.8211303 20.7966086,23.0720881 20.7966086,23.5740038 L20.7966086,23.7093806 L21.4409253,23.7093806 L21.4409253,24.0944381 L20.8017171,24.0944381 L20.8017171,26.331986 L20.8017171,26.331986 Z M24.0143608,25.1238123 L22.1127005,25.1238123 C22.1197248,25.4073372 22.2072088,25.6238123 22.3751526,25.7745147 C22.5430964,25.9252171 22.7608487,26.0012069 23.0284093,26.0012069 C23.3189585,26.0012069 23.5737478,25.9558685 23.7921386,25.8658301 L23.878984,26.217682 C23.6203633,26.3332631 23.3151271,26.3913729 22.9632752,26.3913729 C22.5552292,26.3913729 22.2301973,26.2700447 21.9881794,26.0280268 C21.7461616,25.7860089 21.6248333,25.4648084 21.6248333,25.0637867 C21.6248333,24.6634036 21.7416916,24.3268774 21.9734923,24.0561239 C22.2059317,23.7853704 22.5169151,23.6499936 22.9089968,23.6499936 C23.2704272,23.6499936 23.5475664,23.7700447 23.7404144,24.011424 C23.933901,24.2521648 24.030325,24.5471839 24.030325,24.8958429 C24.030325,24.9954598 24.0252165,25.0714496 24.0143608,25.1238123 L24.0143608,25.1238123 Z M22.1178091,24.7604662 L23.5430964,24.7604662 C23.5430964,24.5350511 23.4849866,24.3524202 23.3687669,24.2144891 C23.2519087,24.0765581 23.0858806,24.0075926 22.8713212,24.0075926 C22.6669789,24.0075926 22.4983966,24.0765581 22.3649355,24.2144891 C22.2308359,24.3524202 22.1484604,24.5350511 22.1178091,24.7604662 L22.1178091,24.7604662 Z M24.6369662,26.3313474 L25.1407976,26.3313474 L25.1407976,23.7093806 L24.6369662,23.7093806 L24.6369662,26.3313474 Z M25.2116788,22.9130843 C25.2116788,23.0037612 25.181666,23.079751 25.1222791,23.1410536 C25.0622535,23.2023563 24.9837095,23.2330077 24.8860083,23.2330077 C24.7927771,23.2330077 24.7155102,23.2023563 24.6561232,23.1410536 C24.5967363,23.079751 24.5667235,23.0037612 24.5667235,22.9130843 C24.5667235,22.8249617 24.5973748,22.7496105 24.658039,22.6895849 C24.7187031,22.6289208 24.79597,22.598908 24.8917554,22.598908 C24.9837095,22.598908 25.0603378,22.6289208 25.1210019,22.6895849 C25.181666,22.7496105 25.2116788,22.8249617 25.2116788,22.9130843 L25.2116788,22.9130843 Z M27.8061871,25.8549745 L27.8987797,26.2342848 C27.690606,26.3300702 27.4453953,26.3805172 27.1618704,26.3856258 L27.0316022,26.5969923 C27.1452676,26.6135951 27.2378602,26.6557407 27.3074642,26.7253448 C27.3764298,26.7949489 27.4109125,26.8773244 27.4109125,26.9711941 C27.4109125,27.1135951 27.3591884,27.2227905 27.2563787,27.2994189 C27.153569,27.3760473 27.0118065,27.415 26.8310913,27.415 C26.6867746,27.415 26.5622535,27.382433 26.4575281,27.3179374 L26.5386264,27.0791124 C26.6273876,27.1333908 26.7244502,27.1608493 26.8310913,27.1608493 C26.9900951,27.1608493 27.0699163,27.1046552 27.0699163,26.9922669 C27.0699163,26.8677458 26.9268768,26.7943103 26.6414361,26.7706833 L26.8694055,26.3696616 C26.5188308,26.3224074 26.2442458,26.1780907 26.0456507,25.9360728 C25.8470556,25.6940549 25.7474387,25.3977586 25.7474387,25.0478225 C25.7474387,24.6378608 25.8821769,24.3019732 26.1516533,24.0407982 C26.4204911,23.7802618 26.7736201,23.6499936 27.2104017,23.6499936 C27.4702995,23.6499936 27.7001845,23.6991635 27.8987797,23.7962261 L27.7902229,24.180645 C27.6241948,24.0944381 27.4307082,24.0510153 27.2104017,24.0510153 C26.9236839,24.0510153 26.6937989,24.1410536 26.5213851,24.3224074 C26.3489713,24.5043997 26.2627644,24.7368391 26.2627644,25.020364 C26.2627644,25.309636 26.3502484,25.5427139 26.5252165,25.7195977 C26.7001845,25.8964815 26.924961,25.9852427 27.199546,25.9852427 C27.4109125,25.9852427 27.6133391,25.9418199 27.8061871,25.8549745 L27.8061871,25.8549745 Z M30.3853697,24.7445019 L30.3853697,25.7029949 C30.3853697,25.9635313 30.3994183,26.1729821 30.4287925,26.331986 L29.9677452,26.331986 L29.9083582,25.9954598 C29.7116788,26.259189 29.4351782,26.3913729 29.0794949,26.3913729 C28.8304527,26.3913729 28.6305805,26.3172989 28.4805166,26.1697893 C28.3310913,26.0229183 28.2557401,25.8460345 28.2557401,25.6384994 C28.2557401,25.3204917 28.3943097,25.0771967 28.6708103,24.9098914 C28.9466724,24.7419476 29.3502484,24.6576564 29.8815383,24.6576564 L29.8815383,24.6091252 C29.8815383,24.4226628 29.8310913,24.2777075 29.7289202,24.1736207 C29.626749,24.0701724 29.4747695,24.0184483 29.2742586,24.0184483 C29.0073365,24.0184483 28.7691501,24.0848595 28.5596992,24.2189591 L28.4453953,23.8881801 C28.6982688,23.7291762 29.0003123,23.6499936 29.3502484,23.6499936 C29.6918831,23.6499936 29.9498653,23.7438633 30.1241948,23.9316028 C30.2985243,24.1193423 30.3853697,24.3900958 30.3853697,24.7445019 L30.3853697,24.7445019 Z M29.892394,25.4379885 L29.892394,25.0043997 C29.4696609,25.0043997 29.1759189,25.0548467 29.0118065,25.1557407 C28.8476941,25.2572733 28.7653186,25.3964815 28.7653186,25.5733653 C28.7653186,25.7125734 28.8068257,25.8204917 28.8892011,25.8990358 C28.9709381,25.9775798 29.0794949,26.0171711 29.2148716,26.0171711 C29.4064425,26.0171711 29.5673621,25.9577842 29.6969917,25.8396488 C29.8272599,25.7215134 29.892394,25.5874138 29.892394,25.4379885 L29.892394,25.4379885 Z M28.9709381,23.2872861 L28.7167874,23.2872861 C28.7167874,23.1155109 28.7480773,22.9801341 28.8106571,22.8817944 C28.8725983,22.7834547 28.9600824,22.7342848 29.0743863,22.7342848 C29.1554847,22.7342848 29.2729815,22.7757918 29.4262382,22.8594444 C29.534795,22.9207471 29.6178091,22.9513985 29.6752803,22.9513985 C29.7602101,22.9513985 29.8074642,22.873493 29.8164042,22.7183206 L30.0654464,22.7183206 C30.0654464,23.0759195 29.942841,23.254719 29.6969917,23.254719 C29.6088691,23.254719 29.4945651,23.2151277 29.3559955,23.1353065 C29.2474387,23.0740038 29.1663404,23.0433525 29.1120619,23.0433525 C29.0309636,23.0433525 28.9837095,23.1244508 28.9709381,23.2872861 L28.9709381,23.2872861 Z M33.6465447,24.9935441 C33.6465447,25.2751533 33.5877963,25.5216411 33.4702995,25.7330077 C33.3534413,25.9443742 33.1886903,26.1065709 32.9773238,26.2208748 C32.7659572,26.3345402 32.5379879,26.3913729 32.2921386,26.3913729 C31.9096354,26.3913729 31.5935434,26.2655747 31.3438627,26.015894 C31.0948206,25.7655747 30.9702995,25.4411814 30.9702995,25.0420754 C30.9702995,24.6180651 31.0992905,24.2796232 31.3566341,24.0273883 C31.6139777,23.7757918 31.938371,23.6499936 32.3298142,23.6499936 C32.7199802,23.6499936 33.0373493,23.7745147 33.2806443,24.024834 C33.5245779,24.2751533 33.6465447,24.5982695 33.6465447,24.9935441 L33.6465447,24.9935441 Z M31.4849866,25.0261111 C31.4849866,25.3128289 31.5616149,25.5497382 31.7155102,25.7368391 C31.8687669,25.9233014 32.0609764,26.0171711 32.2921386,26.0171711 C32.5290479,26.0171711 32.7263659,25.9233014 32.8847312,25.7355619 C33.0424579,25.5478225 33.1210019,25.3058046 33.1210019,25.0095083 C33.1210019,24.7368391 33.0488436,24.5043997 32.9032497,24.3115517 C32.7582944,24.1193423 32.5596992,24.0235568 32.3087414,24.0235568 C32.0539521,24.0235568 31.8534413,24.1187037 31.7065702,24.3089974 C31.5590607,24.4999298 31.4849866,24.7387548 31.4849866,25.0261111 L31.4849866,25.0261111 Z" id="Fill-4" fill="#FFFFFF"></path>
                    <path d="M28.7308515,16 L26.9762376,9.40689109 L28.2318416,9.40689109 C28.482297,9.43065347 29.4451485,9.05093069 29.442297,8.10281188 C29.4389703,7.24261386 28.6519604,7.26067327 28.3748911,7.24879208 L26.809901,7.24879208 L23.4185347,16 L18.3908911,16 L15,6.75073267 L19.1498614,6.75073267 L20.7861386,11.6600396 L22.7308515,4 L30.1651485,4 C32.1759208,4 33.8060198,5.71516832 33.8060198,7.8300198 C33.8060198,9.26574257 33.0546535,10.5175446 31.9435248,11.1729109 L33.8060198,16 L28.7308515,16 Z" id="Fill-3" fill="#FFFFFF"></path>
                </g>
            </g>
        </g>
    </g>
</svg>